<?xml version="1.0" encoding="UTF-8" standalone="no"?>
<!-- Created with Inkscape (http://www.inkscape.org/) -->

<svg
   xmlns:dc="http://purl.org/dc/elements/1.1/"
   xmlns:cc="http://creativecommons.org/ns#"
   xmlns:rdf="http://www.w3.org/1999/02/22-rdf-syntax-ns#"
   xmlns:svg="http://www.w3.org/2000/svg"
   xmlns="http://www.w3.org/2000/svg"
   xmlns:sodipodi="http://sodipodi.sourceforge.net/DTD/sodipodi-0.dtd"
   xmlns:inkscape="http://www.inkscape.org/namespaces/inkscape"
   width="60.690201mm"
   height="13.369466mm"
   viewBox="0 0 60.690201 13.369466"
   version="1.1"
   id="svg8"
   inkscape:version="0.92.5 (2060ec1f9f, 2020-04-08)"
   sodipodi:docname="iconBig.svg">
  <defs
     id="defs2" />
  <sodipodi:namedview
     id="base"
     pagecolor="#ffffff"
     bordercolor="#666666"
     borderopacity="1.0"
     inkscape:pageopacity="0.0"
     inkscape:pageshadow="2"
     inkscape:zoom="3.7623112"
     inkscape:cx="122.41903"
     inkscape:cy="20.34733"
     inkscape:document-units="mm"
     inkscape:current-layer="layer1"
     showgrid="false"
     inkscape:window-width="1920"
     inkscape:window-height="1009"
     inkscape:window-x="0"
     inkscape:window-y="0"
     inkscape:window-maximized="1" />
  <metadata
     id="metadata5">
    <rdf:RDF>
      <cc:Work
         rdf:about="">
        <dc:format>image/svg+xml</dc:format>
        <dc:type
           rdf:resource="http://purl.org/dc/dcmitype/StillImage" />
        <dc:title></dc:title>
      </cc:Work>
    </rdf:RDF>
  </metadata>
  <g
     inkscape:label="Layer 1"
     inkscape:groupmode="layer"
     id="layer1"
     transform="translate(-0.087392,-105.10444)">
    <g
       id="g75"
       transform="matrix(1,0,0,1.0052601,-51.966288,-32.468339)">
      <path
         style="fill:#e29ea6;stroke-width:0.05619469"
         d="m 111.95722,150.14515 c -0.97034,-0.12545 -1.35859,-0.20721 -1.45854,-0.30717 -0.0537,-0.0537 -0.24411,-0.47452 -0.42311,-0.93515 -0.76303,-1.96354 -1.01595,-2.57404 -1.07385,-2.59204 -0.0338,-0.0105 -0.36139,0.66802 -0.72795,1.50785 -0.36657,0.83982 -0.70895,1.5794 -0.76085,1.64349 l -0.0944,0.11654 -0.90428,-0.0972 c -1.06769,-0.11482 -1.21307,-0.15665 -1.16803,-0.3361 0.0175,-0.0696 0.59154,-1.40203 1.27572,-2.961 0.98479,-2.24391 1.23815,-2.87012 1.21603,-3.0055 -0.0154,-0.0941 -0.51283,-1.42267 -1.10545,-2.95247 -0.59261,-1.5298 -1.09192,-2.85363 -1.10957,-2.94186 -0.021,-0.10514 -0.005,-0.17751 0.0463,-0.21005 0.10709,-0.0678 1.88693,-0.0648 2.01437,0.003 0.0648,0.0347 0.33304,0.63125 0.73269,1.62964 0.34674,0.86621 0.65258,1.57493 0.67964,1.57493 0.0701,0 0.2077,-0.28815 0.66467,-1.39149 0.64873,-1.56631 0.76013,-1.79015 0.9111,-1.83055 0.19345,-0.0518 1.91874,-0.0437 2.00232,0.009 0.1061,0.0674 -0.0113,0.38122 -1.3064,3.49194 l -1.15734,2.77987 1.17743,3.12057 c 0.98768,2.6177 1.35616,3.63631 1.35616,3.74891 0,0.0269 -0.19713,0.0105 -0.78672,-0.0658 z m -9.73119,-1.0341 c -0.20612,-0.0188 -0.39578,-0.0553 -0.42146,-0.081 -0.0257,-0.0258 -0.0533,-2.69777 -0.0615,-5.93782 -0.0134,-5.31448 -0.006,-5.89971 0.0743,-5.98006 0.12167,-0.12167 1.77291,-0.13292 1.87264,-0.0128 0.0463,0.0558 0.0595,1.68379 0.049,6.05498 l -0.0143,5.97867 -0.56194,0.006 c -0.30907,0.003 -0.73059,-0.009 -0.93672,-0.0281 z m -3.924123,-0.26166 c -0.633595,-0.04 -1.732962,-0.10032 -2.443038,-0.13398 -1.022459,-0.0485 -1.308881,-0.079 -1.37677,-0.14692 -0.0757,-0.0757 -0.08572,-0.74656 -0.08572,-5.73582 0,-5.52811 0.0024,-5.65181 0.109081,-5.72984 0.166619,-0.12183 1.786791,-0.11457 1.909913,0.009 0.07847,0.0785 0.08832,0.49634 0.08847,3.751 1.13e-4,2.01447 0.01668,4.13527 0.03686,4.71288 l 0.0367,1.05019 0.201965,0.03 c 0.111081,0.0165 0.78358,0.0587 1.494443,0.0937 0.710863,0.035 1.380985,0.0811 1.489159,0.10234 l 0.196682,0.0387 0.01544,0.94541 c 0.01061,0.64952 -0.0047,0.96973 -0.04903,1.02309 -0.07361,0.0887 -0.07318,0.0887 -1.624154,-0.009 z m -42.988935,-1.13599 -1.37677,-0.82486 -0.941261,-0.92532 -0.941261,-0.92531 v -4.09171 -4.09171 h 1.950623 1.950623 l 0.905108,0.89912 0.905108,0.89911 h 1.293438 c 0.71139,0 2.549331,-0.0168 4.084312,-0.0373 l 2.790876,-0.0373 v -0.26306 c 0,-0.14467 0.01649,-0.5325 0.03664,-0.86183 l 0.03664,-0.59879 h 3.441421 c 3.086287,0 3.444941,0.009 3.475531,0.0889 0.01876,0.0489 0.03411,0.42671 0.03411,0.8396 0,0.52009 0.02056,0.76342 0.06692,0.79208 0.03681,0.0228 0.435088,0.0558 0.885067,0.0736 l 0.818143,0.0322 0.01714,0.33717 c 0.0094,0.18544 0.03979,0.35995 0.06748,0.38779 0.02979,0.03 0.219596,-0.11348 0.464775,-0.35122 l 0.414424,-0.40184 h 1.003399 1.003399 l 0.905108,-0.89911 0.905108,-0.89912 h 1.944611 c 1.721392,0 1.948526,0.0102 1.97872,0.0889 0.01876,0.0489 0.0345,0.40923 0.03497,0.80077 4.5e-4,0.39154 0.02197,0.74517 0.04776,0.78585 0.03483,0.0549 0.32016,0.0822 1.108984,0.10588 l 1.062083,0.0319 0.771627,0.76151 c 0.424394,0.41883 0.791064,0.74213 0.814823,0.71844 0.02376,-0.0237 0.05584,-0.7091 0.07129,-1.52314 0.01545,-0.81403 0.04915,-1.50106 0.07489,-1.52674 0.07269,-0.0725 5.46728,-0.09 5.601555,-0.0182 0.104593,0.056 0.111609,0.11945 0.111609,1.00974 0,0.69831 -0.01861,0.96207 -0.07024,0.99548 -0.03863,0.025 -0.866803,0.0581 -1.840376,0.0736 l -1.770133,0.0281 v 1.23628 1.23629 l 1.31978,0.04 c 1.157121,0.0351 1.328535,0.052 1.390819,0.13718 0.0499,0.0682 0.07104,0.35199 0.07104,0.95342 0,0.70349 -0.01576,0.87201 -0.08831,0.94457 -0.07419,0.0742 -0.27401,0.0892 -1.250332,0.0939 -0.639114,0.003 -1.225244,0.0232 -1.302512,0.0446 l -0.140487,0.039 -0.0281,2.23583 c -0.02706,2.15367 -0.03223,2.23887 -0.140487,2.31876 -0.162971,0.12026 -1.805038,0.089 -1.883818,-0.0359 -0.02925,-0.0464 -0.05357,-0.41786 -0.05404,-0.82556 -4.5e-4,-0.40769 -0.0243,-0.75575 -0.05295,-0.77345 -0.02865,-0.0177 -0.641873,0.35992 -1.362721,0.83919 l -1.310632,0.87138 -1.029247,3.9e-4 c -0.602866,2.3e-4 -1.074276,-0.0237 -1.137943,-0.0578 -0.08479,-0.0454 -0.108695,-0.11878 -0.108695,-0.33383 0,-0.15162 -0.02675,-0.29221 -0.05944,-0.31241 -0.03269,-0.0202 -0.152807,0.027 -0.266925,0.10495 -0.114117,0.0779 -0.356303,0.24469 -0.53819,0.37059 l -0.330704,0.2289 h -0.943711 c -1.083791,0 -1.120324,-0.0139 -1.120324,-0.42548 0,-0.14166 -0.0263,-0.24886 -0.06106,-0.24886 -0.03358,0 -0.219065,0.15172 -0.412184,0.33717 l -0.351126,0.33717 h -1.730429 -1.73043 l -0.388907,-0.36688 c -0.2139,-0.20178 -0.410413,-0.35359 -0.436696,-0.33734 -0.02628,0.0162 -0.07827,0.15658 -0.115515,0.31185 -0.03937,0.1641 -0.110779,0.30536 -0.170537,0.33734 -0.05939,0.0318 -0.710016,0.055 -1.540723,0.055 h -1.437914 l -0.237572,-0.21326 c -0.413491,-0.37117 -0.611006,-0.51886 -0.656383,-0.49082 -0.02422,0.015 -0.06082,0.15377 -0.08133,0.30844 -0.02559,0.19289 -0.07088,0.29919 -0.144199,0.33843 -0.114503,0.0613 -2.857776,0.081 -3.077449,0.0221 -0.100744,-0.027 -0.132516,-0.0877 -0.161942,-0.30957 -0.02013,-0.15178 -0.06286,-0.29219 -0.09495,-0.31202 -0.03209,-0.0198 -0.199444,0.12039 -0.371907,0.31162 l -0.313568,0.34767 -2.653118,-0.001 c -2.495511,-0.001 -2.669621,-0.008 -2.930911,-0.11079 -0.275345,-0.10853 -0.278905,-0.10853 -0.404042,0 -0.117942,0.10229 -0.217192,0.10934 -1.508469,0.10714 l -1.38222,-0.002 z m 1.489159,-2.85117 v -1.0115 l -0.824238,-0.0281 c -0.45333,-0.0155 -0.845288,-0.0491 -0.871017,-0.0748 -0.07432,-0.0742 -0.09264,-1.81005 -0.02052,-1.94479 0.05313,-0.0993 0.115961,-0.11588 0.439328,-0.11617 0.207535,-1.9e-4 0.58596,-0.0166 0.840943,-0.0364 l 0.463606,-0.0361 v -0.99615 -0.99615 l -0.175608,-0.0351 c -0.09659,-0.0193 -0.474406,-0.0351 -0.839604,-0.0351 -0.469486,0 -0.677313,-0.0206 -0.709458,-0.0702 -0.025,-0.0386 -0.05811,-0.43691 -0.07356,-0.88506 l -0.0281,-0.81483 h -1.011504 -1.011505 l -0.01449,3.38667 -0.01449,3.38666 0.670363,0.67449 0.670362,0.67449 1.254745,-0.0151 1.254744,-0.0151 z m 8.506082,0.33963 0.699981,-0.69998 -0.03721,-1.69745 c -0.02047,-0.9336 -0.03721,-2.03471 -0.03721,-2.44693 v -0.74947 H 64.930509 63.92725 l -0.03634,0.42994 c -0.01999,0.23646 -0.03634,1.14501 -0.03634,2.01899 0,1.82422 0.01536,1.76624 -0.46762,1.76481 -0.160054,-4.5e-4 -0.318984,-0.0194 -0.353177,-0.0421 -0.04256,-0.0283 -0.07194,-0.68527 -0.09313,-2.0825 -0.01703,-1.12267 -0.04821,-2.05831 -0.06928,-2.07921 -0.05359,-0.0531 -1.925515,-0.042 -1.979295,0.0117 -0.02415,0.0241 -0.05288,0.94035 -0.06384,2.03601 -0.02253,2.25223 -0.0023,2.15696 -0.457142,2.15696 -0.458612,0 -0.45014,0.0132 -0.45014,-0.69933 0,-0.34711 -0.0167,-1.28005 -0.03711,-2.07319 l -0.03711,-1.44208 h -0.993753 -0.993754 l -0.03663,0.80077 c -0.04626,1.01117 -0.04858,5.2852 -0.0029,5.40415 0.03058,0.0797 0.383587,0.0889 3.411348,0.0889 h 3.377238 l 0.69998,-0.69997 z m 3.646491,-2.46098 0.01452,-3.13285 h -1.005422 c -0.995157,0 -1.005768,10e-4 -1.039306,0.12644 -0.04736,0.17672 -0.04418,6.08368 0.0033,6.13116 0.02129,0.0213 0.482793,0.0318 1.025553,0.0234 l 0.986835,-0.0153 z m 4.868405,3.07207 c 0.04445,-0.11583 0.04445,-1.78561 0,-1.90143 -0.0289,-0.0753 -0.156623,-0.0889 -0.836039,-0.0889 -0.613709,0 -0.817053,-0.0182 -0.866362,-0.0776 -0.04437,-0.0535 -0.05964,-0.38148 -0.04903,-1.05365 l 0.0154,-0.97602 0.758628,-0.0355 c 0.417246,-0.0195 0.802882,-0.0385 0.856969,-0.0421 0.08977,-0.006 0.09834,-0.0948 0.09834,-1.01815 0,-0.55632 -0.0063,-1.01542 -0.01405,-1.0202 -0.0077,-0.005 -0.393363,-0.0238 -0.856969,-0.0422 l -0.84292,-0.0334 -0.03519,-0.83315 c -0.01935,-0.45824 -0.05916,-0.85713 -0.08847,-0.88644 -0.03073,-0.0307 -0.467763,-0.0468 -1.032513,-0.0379 l -0.979228,0.0154 -0.0145,3.36876 -0.01449,3.36875 0.69131,0.69131 0.691311,0.69131 h 1.24184 c 1.080557,0 1.24627,-0.0115 1.27595,-0.0889 z m 5.625481,-0.95072 v -1.0115 l -1.219442,-0.0281 c -0.756865,-0.0174 -1.242337,-0.051 -1.279798,-0.0885 -0.03963,-0.0396 -0.05506,-0.39669 -0.04494,-1.0396 l 0.01542,-0.97923 1.245674,-0.0281 c 0.685122,-0.0154 1.266715,-0.0491 1.29243,-0.0749 0.06103,-0.0611 0.06113,-1.92412 1.12e-4,-1.98545 -0.02571,-0.0258 -0.781772,-0.0548 -1.680145,-0.0642 l -1.633407,-0.0173 -0.694079,0.69408 -0.69408,0.69408 v 1.79328 1.79327 l 0.69173,0.69173 0.691729,0.69173 1.654399,-0.0149 1.654398,-0.0149 z m 3.041166,0.97265 c 0.02276,-0.0368 0.05586,-0.9788 0.07356,-2.09326 l 0.03218,-2.02629 0.877035,-0.0154 c 0.686059,-0.0121 0.890864,0.001 0.940542,0.0611 0.04398,0.053 0.06805,0.69705 0.07827,2.09464 l 0.01477,2.01812 0.979228,0.0154 c 0.538575,0.008 0.998666,-0.004 1.022425,-0.0281 0.06053,-0.061 0.131302,-4.05988 0.08033,-4.53909 l -0.04184,-0.39337 -0.666935,-0.67433 -0.666934,-0.67434 -1.308445,-0.0281 -1.308445,-0.0281 -0.0322,-0.81815 c -0.01771,-0.44997 -0.05081,-0.84825 -0.07356,-0.88506 -0.02942,-0.0476 -0.322569,-0.0669 -1.015439,-0.0669 -0.836392,0 -0.978899,0.0126 -1.008187,0.0889 -0.04457,0.11615 -0.04457,7.85431 0,7.97046 0.02929,0.0763 0.171795,0.0889 1.008187,0.0889 0.693168,0 0.986013,-0.0193 1.015462,-0.0669 z m -13.757841,-7.2381 0.24129,-2.5e-4 -0.01651,-0.40742 -0.01651,-0.40741 h -1.011504 -1.011504 v 0.39281 c 0,0.39011 0.0012,0.39309 0.168584,0.43279 0.09272,0.022 0.446748,0.0287 0.786725,0.0149 0.339978,-0.0138 0.726722,-0.0252 0.859431,-0.0254 z"
         id="path89"
         inkscape:connector-curvature="0" />
      <path
         style="fill:#b59dc6;stroke-width:0.05619469"
         d="m 111.52099,150.01025 c -0.64243,-0.11329 -0.88413,-0.17888 -0.96305,-0.26136 -0.058,-0.0606 -0.40017,-0.86874 -0.7605,-1.79595 -0.36032,-0.92721 -0.68559,-1.71653 -0.72279,-1.75405 -0.0372,-0.0375 -0.0968,-0.0502 -0.13236,-0.0281 -0.0356,0.0221 -0.37199,0.74817 -0.74757,1.61357 -0.37558,0.8654 -0.71648,1.6075 -0.75756,1.64912 -0.0626,0.0634 -0.22276,0.0571 -0.98874,-0.0392 -0.50273,-0.0632 -0.93901,-0.13985 -0.96949,-0.17034 -0.0699,-0.0699 -0.12939,0.0756 1.31179,-3.20837 l 1.1955,-2.72414 -0.11871,-0.34014 c -0.0653,-0.18707 -0.57527,-1.52007 -1.1333,-2.96221 -0.55803,-1.44214 -1.0146,-2.67475 -1.0146,-2.73912 0,-0.11478 0.0193,-0.11675 0.99573,-0.1017 l 0.99573,0.0153 0.64796,1.62965 c 0.44657,1.12312 0.67416,1.62964 0.73226,1.62964 0.10766,0 0.261,-0.31704 0.93008,-1.92288 0.34521,-0.82856 0.5772,-1.3145 0.63564,-1.33148 0.10356,-0.0301 0.7588,-0.0476 1.45651,-0.0388 0.33143,0.004 0.47363,0.0274 0.49409,0.0807 0.0158,0.0412 -0.52868,1.41296 -1.20995,3.04842 -0.68127,1.63546 -1.23867,3.02262 -1.23867,3.08258 0,0.06 0.55632,1.58171 1.23628,3.38167 0.67996,1.79996 1.23628,3.31248 1.23628,3.36115 0,0.11448 -0.0682,0.10995 -1.11056,-0.0739 z m -9.06068,-0.95761 c -0.26271,-0.019 -0.50531,-0.052 -0.53911,-0.0733 -0.10328,-0.0652 -0.14425,-3.16951 -0.10121,-7.66715 l 0.04,-4.17945 0.90426,0.0154 0.90425,0.0154 0.0154,5.84425 c 0.008,3.21433 0.002,5.90114 -0.0151,5.97068 -0.0279,0.11561 -0.0606,0.12568 -0.38069,0.11754 -0.19258,-0.005 -0.5651,-0.0244 -0.82781,-0.0434 z m -4.130305,-0.28693 c -0.339978,-0.0238 -1.300907,-0.0741 -2.135398,-0.11187 -0.834491,-0.0377 -1.56151,-0.0916 -1.615598,-0.1198 -0.09267,-0.0482 -0.09829,-0.3745 -0.09748,-5.65465 4.5e-4,-3.08189 0.02134,-5.63571 0.04638,-5.67516 0.0345,-0.0544 0.262124,-0.068 0.940401,-0.0562 l 0.894886,0.0155 0.03517,0.39336 c 0.01934,0.21635 0.03831,2.34374 0.04215,4.72753 0.0055,3.39216 0.02225,4.34671 0.07722,4.39193 0.03863,0.0318 0.789689,0.0992 1.669013,0.14984 0.940712,0.0542 1.629396,0.11748 1.673178,0.15382 0.05721,0.0475 0.07084,0.26452 0.05897,0.93879 l -0.01543,0.87703 -0.477655,0.007 c -0.26271,0.004 -0.755818,-0.0129 -1.095796,-0.0367 z m -43.017033,-1.05231 -1.37677,-0.82486 -0.941261,-0.92532 -0.941261,-0.92531 v -4.09171 -4.09171 h 1.950623 1.950623 l 0.905108,0.89912 0.905108,0.89911 h 1.293438 c 0.71139,0 2.549331,-0.0168 4.084312,-0.0373 l 2.790876,-0.0373 v -0.26306 c 0,-0.14467 0.01649,-0.5325 0.03664,-0.86183 l 0.03664,-0.59879 h 3.441421 c 3.086287,0 3.444941,0.009 3.475531,0.0889 0.01876,0.0489 0.03411,0.42671 0.03411,0.8396 0,0.52009 0.02056,0.76342 0.06692,0.79208 0.03681,0.0228 0.435088,0.0558 0.885067,0.0736 l 0.818143,0.0322 0.01714,0.33717 c 0.0094,0.18544 0.03979,0.35995 0.06748,0.38779 0.02979,0.03 0.219596,-0.11348 0.464775,-0.35122 l 0.414424,-0.40184 h 1.003399 1.003399 l 0.905108,-0.89911 0.905108,-0.89912 h 1.944611 c 1.721392,0 1.948526,0.0102 1.97872,0.0889 0.01876,0.0489 0.0345,0.40923 0.03497,0.80077 4.5e-4,0.39154 0.02197,0.74517 0.04776,0.78585 0.03484,0.0549 0.320078,0.0822 1.108984,0.10579 l 1.062083,0.0318 0.82692,0.81706 c 0.544613,0.53812 0.836221,0.78978 0.854166,0.73714 0.01498,-0.044 0.03483,-0.72476 0.04411,-1.5129 0.0093,-0.78813 0.03732,-1.46457 0.06231,-1.5032 0.03534,-0.0546 0.655996,-0.0703 2.789662,-0.0703 2.450522,0 2.747861,0.01 2.77832,0.0889 0.04859,0.12662 0.04072,1.66873 -0.0089,1.74332 -0.0277,0.0417 -0.622674,0.0752 -1.808381,0.10183 -0.971903,0.0219 -1.787428,0.0523 -1.812278,0.0677 -0.02485,0.0154 -0.04518,0.6051 -0.04518,1.31053 v 1.28261 l 0.126438,0.0339 c 0.06954,0.0186 0.657478,0.0346 1.306527,0.0355 0.649048,8.9e-4 1.21802,0.0256 1.26438,0.0549 0.114665,0.0725 0.124872,1.6967 0.01138,1.81056 -0.05387,0.0541 -0.408528,0.0805 -1.358204,0.10126 -0.706911,0.0155 -1.302909,0.0458 -1.324442,0.0674 -0.02153,0.0216 -0.05517,1.05842 -0.07476,2.30398 l -0.03561,2.26467 -0.906254,0.0154 c -1.072779,0.0182 -0.974349,0.11382 -0.975501,-0.94731 -7.75e-4,-0.71602 -0.02418,-0.8382 -0.135697,-0.70843 -0.03396,0.0395 -0.643914,0.45637 -1.355446,0.92634 l -1.293694,0.85448 h -1.028031 c -0.601184,0 -1.073161,-0.0242 -1.136726,-0.0582 -0.08479,-0.0454 -0.108695,-0.1188 -0.108695,-0.33385 0,-0.15162 -0.02675,-0.29221 -0.05944,-0.31241 -0.03269,-0.0202 -0.152807,0.027 -0.266925,0.10495 -0.114117,0.0779 -0.356303,0.24469 -0.53819,0.37059 l -0.330704,0.2289 h -0.943711 c -1.083791,0 -1.120324,-0.0139 -1.120324,-0.42548 0,-0.14166 -0.0263,-0.24886 -0.06106,-0.24886 -0.03358,0 -0.219065,0.15172 -0.412184,0.33717 l -0.351126,0.33717 h -1.730429 -1.73043 l -0.388907,-0.36688 c -0.2139,-0.20178 -0.410413,-0.35359 -0.436696,-0.33734 -0.02628,0.0162 -0.07827,0.15658 -0.115515,0.31185 -0.03937,0.1641 -0.110779,0.30536 -0.170537,0.33734 -0.05939,0.0318 -0.710016,0.055 -1.540723,0.055 H 70.7078 l -0.237572,-0.21326 c -0.413491,-0.37117 -0.611006,-0.51886 -0.656383,-0.49082 -0.02422,0.015 -0.06082,0.15377 -0.08133,0.30844 -0.02559,0.19289 -0.07088,0.29919 -0.144199,0.33843 -0.114503,0.0613 -2.857776,0.081 -3.077449,0.0221 -0.100744,-0.027 -0.132516,-0.0877 -0.161942,-0.30957 -0.02013,-0.15178 -0.06286,-0.29219 -0.09495,-0.31202 -0.03209,-0.0198 -0.199444,0.12039 -0.371907,0.31162 l -0.313568,0.34767 -2.653118,-0.001 c -2.495511,-0.001 -2.669621,-0.008 -2.930911,-0.11079 -0.275345,-0.10853 -0.278905,-0.10853 -0.404042,0 -0.117942,0.10229 -0.217192,0.10934 -1.508469,0.10714 l -1.38222,-0.002 z m 1.489159,-2.85117 v -1.0115 l -0.824238,-0.0281 c -0.45333,-0.0155 -0.845288,-0.0491 -0.871017,-0.0748 -0.07432,-0.0742 -0.09264,-1.81005 -0.02052,-1.94479 0.05313,-0.0993 0.115961,-0.11588 0.439328,-0.11617 0.207535,-1.9e-4 0.58596,-0.0166 0.840943,-0.0364 l 0.463606,-0.0361 v -0.99615 -0.99615 l -0.175608,-0.0351 c -0.09659,-0.0193 -0.474406,-0.0351 -0.839604,-0.0351 -0.469486,0 -0.677313,-0.0206 -0.709458,-0.0702 -0.025,-0.0386 -0.05811,-0.43691 -0.07356,-0.88506 l -0.0281,-0.81483 h -1.011504 -1.011505 l -0.01449,3.38667 -0.01449,3.38666 0.670363,0.67449 0.670362,0.67449 1.254745,-0.0151 1.254744,-0.0151 z m 8.506082,0.33963 0.699981,-0.69998 -0.03721,-1.69745 c -0.02047,-0.9336 -0.03721,-2.03471 -0.03721,-2.44693 v -0.74947 H 64.930509 63.92725 l -0.03634,0.42994 c -0.01999,0.23646 -0.03634,1.14501 -0.03634,2.01899 0,1.82422 0.01536,1.76624 -0.46762,1.76481 -0.160054,-4.5e-4 -0.318984,-0.0194 -0.353177,-0.0421 -0.04256,-0.0283 -0.07194,-0.68527 -0.09313,-2.0825 -0.01703,-1.12267 -0.04821,-2.05831 -0.06928,-2.07921 -0.05359,-0.0531 -1.925515,-0.042 -1.979295,0.0117 -0.02415,0.0241 -0.05288,0.94035 -0.06384,2.03601 -0.02253,2.25223 -0.0023,2.15696 -0.457142,2.15696 -0.458612,0 -0.45014,0.0132 -0.45014,-0.69933 0,-0.34711 -0.0167,-1.28005 -0.03711,-2.07319 l -0.03711,-1.44208 h -0.993753 -0.993754 l -0.03663,0.80077 c -0.04626,1.01117 -0.04858,5.2852 -0.0029,5.40415 0.03058,0.0797 0.383587,0.0889 3.411348,0.0889 h 3.377238 l 0.69998,-0.69997 z m 3.646491,-2.46098 0.01452,-3.13285 h -1.005422 c -0.995157,0 -1.005768,10e-4 -1.039306,0.12644 -0.04736,0.17672 -0.04418,6.08368 0.0033,6.13116 0.02129,0.0213 0.482793,0.0318 1.025553,0.0234 l 0.986835,-0.0153 z m 4.868405,3.07207 c 0.04445,-0.11583 0.04445,-1.78561 0,-1.90143 -0.0289,-0.0753 -0.156623,-0.0889 -0.836039,-0.0889 -0.613709,0 -0.817053,-0.0182 -0.866362,-0.0776 -0.04437,-0.0535 -0.05964,-0.38148 -0.04903,-1.05365 l 0.0154,-0.97602 0.758628,-0.0355 c 0.417246,-0.0195 0.802882,-0.0385 0.856969,-0.0421 0.08977,-0.006 0.09834,-0.0948 0.09834,-1.01815 0,-0.55632 -0.0063,-1.01542 -0.01405,-1.0202 -0.0077,-0.005 -0.393363,-0.0238 -0.856969,-0.0422 l -0.84292,-0.0334 -0.03519,-0.83315 c -0.01935,-0.45824 -0.05916,-0.85713 -0.08847,-0.88644 -0.03073,-0.0307 -0.467763,-0.0468 -1.032513,-0.0379 l -0.979228,0.0154 -0.0145,3.36876 -0.01449,3.36875 0.69131,0.69131 0.691311,0.69131 h 1.24184 c 1.080557,0 1.24627,-0.0115 1.27595,-0.0889 z m 5.625481,-0.95072 v -1.0115 l -1.219442,-0.0281 c -0.756865,-0.0174 -1.242337,-0.051 -1.279798,-0.0885 -0.03963,-0.0396 -0.05506,-0.39669 -0.04494,-1.0396 l 0.01542,-0.97923 1.245674,-0.0281 c 0.685122,-0.0154 1.266715,-0.0491 1.29243,-0.0749 0.06103,-0.0611 0.06113,-1.92412 1.12e-4,-1.98545 -0.02571,-0.0258 -0.781772,-0.0548 -1.680145,-0.0642 l -1.633407,-0.0173 -0.694079,0.69408 -0.69408,0.69408 v 1.79328 1.79327 l 0.69173,0.69173 0.691729,0.69173 1.654399,-0.0149 1.654398,-0.0149 z m 3.041166,0.97265 c 0.02276,-0.0368 0.05586,-0.9788 0.07356,-2.09326 l 0.03218,-2.02629 0.877035,-0.0154 c 0.686059,-0.0121 0.890864,0.001 0.940542,0.0611 0.04398,0.053 0.06805,0.69705 0.07827,2.09464 l 0.01477,2.01812 0.979228,0.0154 c 0.538575,0.008 0.998666,-0.004 1.022425,-0.0281 0.06053,-0.061 0.131302,-4.05988 0.08033,-4.53909 l -0.04184,-0.39337 -0.666935,-0.67433 -0.666934,-0.67434 -1.308445,-0.0281 -1.308445,-0.0281 -0.0322,-0.81815 c -0.01771,-0.44997 -0.05081,-0.84825 -0.07356,-0.88506 -0.02942,-0.0476 -0.322569,-0.0669 -1.015439,-0.0669 -0.836392,0 -0.978899,0.0126 -1.008187,0.0889 -0.04457,0.11615 -0.04457,7.85431 0,7.97046 0.02929,0.0763 0.171795,0.0889 1.008187,0.0889 0.693168,0 0.986013,-0.0193 1.015462,-0.0669 z m -13.757841,-7.2381 0.24129,-2.5e-4 -0.01651,-0.40742 -0.01651,-0.40741 h -1.011504 -1.011504 v 0.39281 c 0,0.39011 0.0012,0.39309 0.168584,0.43279 0.09272,0.022 0.446748,0.0287 0.786725,0.0149 0.339978,-0.0138 0.726722,-0.0252 0.859431,-0.0254 z"
         id="path87"
         inkscape:connector-curvature="0" />
      <path
         style="fill:#976da9;stroke-width:0.05619469"
         d="m 111.52099,150.01025 c -0.64243,-0.11329 -0.88413,-0.17888 -0.96305,-0.26136 -0.058,-0.0606 -0.40017,-0.86874 -0.7605,-1.79595 -0.36032,-0.92721 -0.68559,-1.71653 -0.72279,-1.75405 -0.0372,-0.0375 -0.0968,-0.0502 -0.13236,-0.0281 -0.0356,0.0221 -0.37199,0.74817 -0.74757,1.61357 -0.37558,0.8654 -0.71648,1.6075 -0.75756,1.64912 -0.0626,0.0634 -0.22276,0.0571 -0.98874,-0.0392 -0.50273,-0.0632 -0.93901,-0.13985 -0.96949,-0.17034 -0.0699,-0.0699 -0.12939,0.0756 1.31179,-3.20837 l 1.1955,-2.72414 -0.11871,-0.34014 c -0.0653,-0.18707 -0.57527,-1.52007 -1.1333,-2.96221 -0.55803,-1.44214 -1.0146,-2.67475 -1.0146,-2.73912 0,-0.11478 0.0193,-0.11675 0.99573,-0.1017 l 0.99573,0.0153 0.64796,1.62965 c 0.44657,1.12312 0.67416,1.62964 0.73226,1.62964 0.10766,0 0.261,-0.31704 0.93008,-1.92288 0.34521,-0.82856 0.5772,-1.3145 0.63564,-1.33148 0.10356,-0.0301 0.7588,-0.0476 1.45651,-0.0388 0.33143,0.004 0.47363,0.0274 0.49409,0.0807 0.0158,0.0412 -0.52868,1.41296 -1.20995,3.04842 -0.68127,1.63546 -1.23867,3.02262 -1.23867,3.08258 0,0.06 0.55632,1.58171 1.23628,3.38167 0.67996,1.79996 1.23628,3.31248 1.23628,3.36115 0,0.11448 -0.0682,0.10995 -1.11056,-0.0739 z m -9.06068,-0.95761 c -0.26271,-0.019 -0.50531,-0.052 -0.53911,-0.0733 -0.10328,-0.0652 -0.14425,-3.16951 -0.10121,-7.66715 l 0.04,-4.17945 0.90426,0.0154 0.90425,0.0154 0.0154,5.84425 c 0.008,3.21433 0.002,5.90114 -0.0151,5.97068 -0.0279,0.11561 -0.0606,0.12568 -0.38069,0.11754 -0.19258,-0.005 -0.5651,-0.0244 -0.82781,-0.0434 z m -4.130305,-0.28693 c -0.339978,-0.0238 -1.300907,-0.0741 -2.135398,-0.11187 -0.834491,-0.0377 -1.56151,-0.0916 -1.615598,-0.1198 -0.09267,-0.0482 -0.09829,-0.3745 -0.09748,-5.65465 4.5e-4,-3.08189 0.02134,-5.63571 0.04638,-5.67516 0.0345,-0.0544 0.262124,-0.068 0.940401,-0.0562 l 0.894886,0.0155 0.03517,0.39336 c 0.01934,0.21635 0.03831,2.34374 0.04215,4.72753 0.0055,3.39216 0.02225,4.34671 0.07722,4.39193 0.03863,0.0318 0.789689,0.0992 1.669013,0.14984 0.940712,0.0542 1.629396,0.11748 1.673178,0.15382 0.05721,0.0475 0.07084,0.26452 0.05897,0.93879 l -0.01543,0.87703 -0.477655,0.007 c -0.26271,0.004 -0.755818,-0.0129 -1.095796,-0.0367 z M 56.748584,148.4394 c -0.05425,-0.0106 -0.718291,-0.39359 -1.475657,-0.85105 l -1.37703,-0.83176 -0.921109,-0.91532 -0.921108,-0.91531 v -4.03574 -4.03573 h 1.894486 1.894486 l 0.93304,0.92721 0.933039,0.92721 h 4.060018 c 2.69121,0 4.096664,-0.0196 4.168713,-0.0582 0.100274,-0.0537 0.108695,-0.12553 0.108695,-0.92764 v -0.86948 l 3.405955,0.0145 3.405954,0.0145 0.028,0.84292 c 0.0154,0.4636 0.05365,0.87453 0.085,0.91316 0.0406,0.05 0.279455,0.0702 0.829964,0.0702 0.560916,0 0.789399,0.0198 0.832874,0.0722 0.03295,0.0397 0.06766,0.22104 0.07712,0.40297 0.01002,0.19258 0.04524,0.34003 0.08428,0.3529 0.03689,0.0122 0.267285,-0.16918 0.511997,-0.40297 l 0.44493,-0.42509 h 1.001518 1.001517 l 0.933816,-0.92798 0.933816,-0.92798 1.879661,0.0148 1.879661,0.0148 0.01924,0.8709 c 0.01279,0.57914 0.04103,0.88478 0.08429,0.91231 0.03578,0.0228 0.530918,0.0418 1.100304,0.0422 l 1.035247,8.6e-4 0.801109,0.79429 c 0.526494,0.522 0.829494,0.78338 0.883913,0.7625 0.06934,-0.0266 0.08598,-0.27232 0.102361,-1.51076 0.01076,-0.81345 0.04001,-1.5106 0.06502,-1.54923 0.03535,-0.0546 0.656015,-0.0703 2.789674,-0.0703 2.450522,0 2.747861,0.01 2.77832,0.0889 0.04859,0.12662 0.04072,1.66873 -0.0089,1.74332 -0.0277,0.0417 -0.622674,0.0752 -1.808381,0.10183 -0.971903,0.0219 -1.787428,0.0523 -1.812278,0.0677 -0.02485,0.0154 -0.04518,0.6051 -0.04518,1.31053 v 1.28261 l 0.126438,0.0339 c 0.06954,0.0186 0.657478,0.0346 1.306527,0.0355 0.649048,8.9e-4 1.21802,0.0256 1.26438,0.0549 0.114665,0.0725 0.124872,1.6967 0.01138,1.81056 -0.05387,0.0541 -0.408528,0.0805 -1.358204,0.10126 -0.706911,0.0155 -1.302909,0.0458 -1.324442,0.0674 -0.02153,0.0216 -0.05517,1.05842 -0.07476,2.30398 l -0.03561,2.26467 -0.906254,0.0154 c -1.072779,0.0182 -0.974349,0.11382 -0.975501,-0.94731 -4.49e-4,-0.38891 -0.01662,-0.72296 -0.03599,-0.74234 -0.05616,-0.0562 -0.311069,0.0961 -1.566185,0.93535 l -1.18023,0.7892 -1.066549,-0.0158 c -0.586601,-0.009 -1.086032,-0.0278 -1.109845,-0.0425 -0.02381,-0.0147 -0.0433,-0.16514 -0.0433,-0.33428 0,-0.21872 -0.02385,-0.31667 -0.08261,-0.33922 -0.04817,-0.0185 -0.311694,0.12865 -0.632191,0.35298 l -0.549582,0.38468 -0.672256,0.019 c -0.369741,0.0105 -0.805952,0.002 -0.969359,-0.0181 l -0.297102,-0.0371 v -0.24424 c 0,-0.29417 -0.04304,-0.42201 -0.142072,-0.42201 -0.04062,0 -0.252963,0.16437 -0.471876,0.36527 l -0.398023,0.36526 h -1.658066 -1.658065 l -0.424242,-0.39336 c -0.233334,-0.21635 -0.446536,-0.39337 -0.473783,-0.39337 -0.07571,0 -0.121535,0.0992 -0.191396,0.4143 l -0.06388,0.28814 -1.431754,0.0317 c -0.892444,0.0198 -1.474088,0.0109 -1.544143,-0.0235 -0.06181,-0.0304 -0.285313,-0.2041 -0.496665,-0.386 -0.211352,-0.18189 -0.413653,-0.32103 -0.449558,-0.30919 -0.0359,0.0118 -0.0913,0.17124 -0.123098,0.35424 l -0.05782,0.33273 h -1.57062 -1.57062 l -0.05775,-0.3045 c -0.03202,-0.16883 -0.09286,-0.31621 -0.136542,-0.33077 -0.04585,-0.0153 -0.223616,0.12964 -0.42519,0.34665 l -0.346395,0.37291 h -2.548799 c -2.467252,0 -2.561,-0.004 -2.930183,-0.12283 -0.353698,-0.11392 -0.388741,-0.11618 -0.482719,-0.0311 -0.0863,0.0781 -0.293762,0.0942 -1.398292,0.10879 -0.713327,0.009 -1.34134,0.008 -1.395585,-0.002 z m 0.146007,-2.54886 c 0.06193,-0.0976 0.05962,-1.9626 -0.0025,-2.06074 -0.03605,-0.0569 -0.267831,-0.0864 -0.884206,-0.11239 l -0.835354,-0.0353 v -0.9553 -0.95531 l 0.814823,-0.015 c 0.685091,-0.0126 0.826007,-0.03 0.885066,-0.10909 0.09701,-0.12995 0.09952,-1.98767 0.0028,-2.08438 -0.04572,-0.0457 -0.31261,-0.0677 -0.828871,-0.0683 -0.418791,-4.7e-4 -0.790141,-0.0194 -0.825222,-0.0421 -0.04074,-0.0264 -0.07167,-0.32547 -0.08561,-0.82801 -0.01201,-0.4327 -0.04169,-0.81833 -0.06597,-0.85697 -0.03277,-0.0522 -0.317128,-0.0702 -1.104051,-0.0702 h -1.05991 l -0.03579,0.35122 c -0.01969,0.19317 -0.02802,1.73534 -0.01852,3.42706 l 0.01727,3.07584 0.699091,0.70075 c 0.3845,0.38541 0.75117,0.71297 0.814823,0.72792 0.06365,0.0149 0.644513,0.0173 1.2908,0.005 0.883154,-0.0165 1.186572,-0.04 1.221374,-0.0949 z m 8.450897,-0.61124 0.700669,-0.70682 v -2.47099 c 0,-1.84695 -0.01703,-2.48801 -0.06743,-2.53842 -0.09486,-0.0949 -2.018055,-0.0949 -2.11292,0 -0.04978,0.0498 -0.06764,0.56845 -0.0682,1.98087 -4.5e-4,1.05238 -0.01631,1.97145 -0.0353,2.04236 -0.03191,0.11913 -0.0607,0.12767 -0.378547,0.11239 l -0.344011,-0.0165 -0.0281,-2.023 c -0.01545,-1.11266 -0.04856,-2.05462 -0.07356,-2.09326 -0.06331,-0.0978 -2.009191,-0.10041 -2.106794,-0.003 -0.04978,0.0498 -0.06764,0.56845 -0.0682,1.98087 -4.49e-4,1.05238 -0.01631,1.97145 -0.0353,2.04236 -0.03191,0.11913 -0.0607,0.12767 -0.378547,0.11239 l -0.344011,-0.0165 -0.01477,-2.01811 c -0.01006,-1.37527 -0.03463,-2.04205 -0.07712,-2.09326 -0.09122,-0.10991 -2.030071,-0.10859 -2.121392,10e-4 -0.04599,0.0554 -0.05954,0.94446 -0.04903,3.21715 l 0.01452,3.14057 0.505752,0.0322 c 0.278164,0.0177 1.827824,0.0304 3.443689,0.0281 l 2.937937,-0.004 0.700669,-0.70682 z m 3.689255,0.60785 c 0.02431,-0.0383 0.04459,-1.46169 0.04507,-3.16312 6.46e-4,-2.33212 -0.01574,-3.11012 -0.06657,-3.16096 -0.07758,-0.0776 -1.991437,-0.0965 -2.110584,-0.0208 -0.05574,0.0354 -0.06764,0.71629 -0.05619,3.21573 l 0.01452,3.17085 0.168584,0.0402 c 0.280303,0.0668 1.954135,-0.002 2.005179,-0.0819 z m 4.80919,0.051 c 0.09358,-0.0578 0.09994,-2.09005 0.0067,-2.14766 -0.03452,-0.0213 -0.432797,-0.0544 -0.885067,-0.0736 l -0.822308,-0.0348 -0.01551,-0.89159 c -0.01061,-0.60976 0.0049,-0.91618 0.04903,-0.96936 0.0492,-0.0593 0.247184,-0.0778 0.833142,-0.0778 0.522878,0 0.790165,-0.0216 0.83604,-0.0674 0.09486,-0.0949 0.09486,-2.01805 0,-2.11292 -0.04584,-0.0458 -0.312193,-0.0674 -0.831682,-0.0674 -0.519488,0 -0.785844,-0.0216 -0.831681,-0.0674 -0.04587,-0.0459 -0.06743,-0.31316 -0.06743,-0.83604 0,-0.585 -0.01853,-0.78399 -0.07756,-0.83298 -0.05363,-0.0445 -0.396067,-0.0596 -1.109845,-0.049 l -1.032285,0.0153 -0.01449,3.42662 -0.01449,3.42662 0.685483,0.68714 c 0.377015,0.37792 0.737562,0.69898 0.801215,0.71345 0.1873,0.0426 2.414736,0.006 2.49072,-0.0412 z m 5.697579,-0.0483 c 0.062,-0.0977 0.05868,-1.96261 -0.0037,-2.06107 -0.03891,-0.0615 -0.312597,-0.0841 -1.277569,-0.10594 -0.812073,-0.0183 -1.242035,-0.0489 -1.269336,-0.0904 -0.06393,-0.097 -0.05064,-1.65733 0.01516,-1.78029 0.05466,-0.10214 0.128987,-0.10869 1.232271,-0.10869 0.992434,0 1.18776,-0.0137 1.262403,-0.0883 0.07344,-0.0734 0.08831,-0.25124 0.08831,-1.05646 0,-0.67808 -0.02021,-0.98836 -0.06743,-1.03559 -0.04945,-0.0495 -0.517431,-0.0674 -1.755252,-0.0674 h -1.687818 l -0.689217,0.69474 -0.689217,0.69473 v 1.84266 1.84265 l 0.63219,0.64422 c 0.347705,0.35432 0.708053,0.6803 0.800774,0.72439 0.230208,0.10947 3.336179,0.0646 3.408409,-0.0492 z m 3.032985,0.002 c 0.02605,-0.0411 0.04776,-0.96106 0.04823,-2.04435 6.35e-4,-1.45601 0.01844,-1.98721 0.06829,-2.03706 0.09924,-0.0992 1.611662,-0.0942 1.64992,0.006 0.01539,0.0401 0.04621,0.98028 0.06848,2.08928 l 0.04049,2.01636 0.168584,0.0497 c 0.245635,0.0725 1.951939,-8.4e-4 2.006169,-0.0862 0.02377,-0.0374 0.0436,-1.16583 0.04408,-2.50764 l 8.6e-4,-2.43964 -0.713705,-0.72131 -0.713707,-0.72131 h -1.241869 c -0.890972,0 -1.260923,-0.0191 -1.309303,-0.0674 -0.04587,-0.0459 -0.06743,-0.31316 -0.06743,-0.83604 0,-0.585 -0.01853,-0.78399 -0.07756,-0.83298 -0.05363,-0.0445 -0.396068,-0.0596 -1.109845,-0.049 l -1.032285,0.0153 v 4.10221 4.10221 l 0.196681,0.0387 c 0.349423,0.0688 1.920381,0.008 1.973916,-0.0764 z m -13.56126,-7.25079 c 0.09681,-0.0968 0.08874,-0.80024 -0.01013,-0.88229 -0.05363,-0.0445 -0.396067,-0.0596 -1.109845,-0.049 l -1.032285,0.0153 -0.01658,0.44468 c -0.01185,0.31779 0.0042,0.45785 0.05619,0.49084 0.120635,0.0765 2.03427,0.0588 2.11264,-0.0196 z"
         id="path85"
         inkscape:connector-curvature="0" />
      <path
         style="fill:#d25864;stroke-width:0.05619469"
         d="m 111.52099,150.01025 c -0.64243,-0.11329 -0.88413,-0.17888 -0.96305,-0.26136 -0.058,-0.0606 -0.40017,-0.86874 -0.7605,-1.79595 -0.36032,-0.92721 -0.68559,-1.71653 -0.72279,-1.75405 -0.0372,-0.0375 -0.0968,-0.0502 -0.13236,-0.0281 -0.0356,0.0221 -0.37199,0.74817 -0.74757,1.61357 -0.37558,0.8654 -0.71648,1.6075 -0.75756,1.64912 -0.0626,0.0634 -0.22276,0.0571 -0.98874,-0.0392 -0.50273,-0.0632 -0.93901,-0.13985 -0.96949,-0.17034 -0.0699,-0.0699 -0.12939,0.0756 1.31179,-3.20837 l 1.1955,-2.72414 -0.11871,-0.34014 c -0.0653,-0.18707 -0.57527,-1.52007 -1.1333,-2.96221 -0.55803,-1.44214 -1.0146,-2.67475 -1.0146,-2.73912 0,-0.11478 0.0193,-0.11675 0.99573,-0.1017 l 0.99573,0.0153 0.64796,1.62965 c 0.44657,1.12312 0.67416,1.62964 0.73226,1.62964 0.10766,0 0.261,-0.31704 0.93008,-1.92288 0.34521,-0.82856 0.5772,-1.3145 0.63564,-1.33148 0.10356,-0.0301 0.7588,-0.0476 1.45651,-0.0388 0.33143,0.004 0.47363,0.0274 0.49409,0.0807 0.0158,0.0412 -0.52868,1.41296 -1.20995,3.04842 -0.68127,1.63546 -1.23867,3.02262 -1.23867,3.08258 0,0.06 0.55632,1.58171 1.23628,3.38167 0.67996,1.79996 1.23628,3.31248 1.23628,3.36115 0,0.11448 -0.0682,0.10995 -1.11056,-0.0739 z m -9.06068,-0.95761 c -0.26271,-0.019 -0.50531,-0.052 -0.53911,-0.0733 -0.10328,-0.0652 -0.14425,-3.16951 -0.10121,-7.66715 l 0.04,-4.17945 0.90426,0.0154 0.90425,0.0154 0.0154,5.84425 c 0.008,3.21433 0.002,5.90114 -0.0151,5.97068 -0.0279,0.11561 -0.0606,0.12568 -0.38069,0.11754 -0.19258,-0.005 -0.5651,-0.0244 -0.82781,-0.0434 z m -4.130305,-0.28693 c -0.339978,-0.0238 -1.300907,-0.0741 -2.135398,-0.11187 -0.834491,-0.0377 -1.56151,-0.0916 -1.615598,-0.1198 -0.09267,-0.0482 -0.09829,-0.3745 -0.09748,-5.65465 4.5e-4,-3.08189 0.02134,-5.63571 0.04638,-5.67516 0.0345,-0.0544 0.262124,-0.068 0.940401,-0.0562 l 0.894886,0.0155 0.03517,0.39336 c 0.01934,0.21635 0.03831,2.34374 0.04215,4.72753 0.0055,3.39216 0.02225,4.34671 0.07722,4.39193 0.03863,0.0318 0.789689,0.0992 1.669013,0.14984 0.940712,0.0542 1.629396,0.11748 1.673178,0.15382 0.05721,0.0475 0.07084,0.26452 0.05897,0.93879 l -0.01543,0.87703 -0.477655,0.007 c -0.26271,0.004 -0.755818,-0.0129 -1.095796,-0.0367 z m -41.696458,-0.44394 c -0.123628,-0.0585 -0.768462,-0.43461 -1.432965,-0.83568 -1.17888,-0.71153 -1.23088,-0.75083 -2.143831,-1.62034 l -0.935646,-0.89113 -0.0056,-4.03197 -0.0056,-4.03197 h 1.869112 1.869112 l 0.926573,0.92813 0.926574,0.92812 4.146421,-0.015 c 3.612735,-0.013 4.153476,-0.0258 4.20124,-0.0993 0.03115,-0.0479 0.04846,-0.44214 0.04008,-0.91325 l -0.01474,-0.82895 3.371682,1.5e-4 3.371681,1.5e-4 0.01967,0.8569 c 0.01081,0.4713 0.04497,0.88785 0.0759,0.92568 0.03856,0.0472 0.315037,0.0737 0.879451,0.0843 l 0.823211,0.0155 0.01651,0.37447 c 0.02586,0.58657 0.08909,0.59166 0.65207,0.0525 l 0.475182,-0.45507 h 1.002211 1.002211 l 0.925935,-0.92721 0.925935,-0.92722 h 1.863826 1.863827 l 0.0077,0.8541 c 0.0047,0.51743 0.0316,0.88292 0.06836,0.92721 0.04583,0.0552 0.316891,0.0732 1.107452,0.0734 l 1.04677,2.4e-4 0.869948,0.86716 c 0.478471,0.47694 0.883073,0.85405 0.899115,0.83802 0.01604,-0.016 0.04246,-0.74142 0.05871,-1.61199 0.01625,-0.87056 0.04935,-1.61445 0.07356,-1.65308 0.03424,-0.0546 0.6538,-0.0703 2.78823,-0.0703 2.450522,0 2.747861,0.01 2.77832,0.0889 0.04859,0.12662 0.04072,1.66873 -0.0089,1.74332 -0.0277,0.0417 -0.622674,0.0752 -1.808381,0.10183 -0.971903,0.0219 -1.787428,0.0523 -1.812278,0.0677 -0.02485,0.0154 -0.04518,0.6051 -0.04518,1.31053 v 1.28261 l 0.126438,0.0339 c 0.06954,0.0186 0.657478,0.0346 1.306527,0.0355 0.649048,8.9e-4 1.21802,0.0256 1.26438,0.0549 0.114665,0.0725 0.124872,1.6967 0.01138,1.81056 -0.05387,0.0541 -0.408528,0.0805 -1.358204,0.10126 -0.706911,0.0155 -1.302909,0.0458 -1.324442,0.0674 -0.02153,0.0216 -0.05517,1.05842 -0.07476,2.30398 l -0.03561,2.26467 -0.906254,0.0154 c -1.071976,0.0182 -0.972354,0.1141 -0.97945,-0.94262 -0.0026,-0.38634 -0.02213,-0.74639 -0.04341,-0.80011 -0.03254,-0.0821 -0.256832,0.0476 -1.409039,0.81482 l -1.370341,0.9125 -1.017432,-0.0196 c -0.559587,-0.0108 -1.036397,-0.0312 -1.059577,-0.0455 -0.02318,-0.0142 -0.04215,-0.15839 -0.04215,-0.32037 0,-0.52433 -0.05848,-0.5214 -0.842783,0.0423 l -0.477517,0.34318 -0.753932,0.0186 c -0.414662,0.0102 -0.838292,0.003 -0.941398,-0.0166 -0.182034,-0.0342 -0.187467,-0.0431 -0.187467,-0.309 0,-0.57114 -0.09999,-0.58264 -0.628608,-0.0723 l -0.392956,0.3794 h -1.707417 -1.707417 l -0.387775,-0.3848 c -0.483081,-0.47938 -0.568026,-0.47974 -0.676892,-0.003 l -0.07822,0.34264 -1.410937,0.034 c -1.600847,0.0386 -1.414049,0.0821 -2.067171,-0.48189 -0.419476,-0.36225 -0.507917,-0.34478 -0.575864,0.11379 l -0.05201,0.351 h -1.52911 -1.52911 l -0.03768,-0.26692 c -0.05399,-0.38247 -0.08471,-0.46361 -0.175551,-0.46361 -0.08525,0 -0.123427,0.0349 -0.541686,0.49548 l -0.264499,0.29125 H 62.93038 c -2.422436,0 -2.574422,-0.006 -2.854305,-0.11237 -0.345324,-0.13125 -0.525183,-0.1424 -0.587855,-0.0364 -0.03468,0.0586 -0.340138,0.084 -1.337416,0.11121 -1.194754,0.0326 -1.309474,0.0272 -1.517257,-0.0712 z m 0.272476,-2.35657 c 0.08005,-0.0665 0.09279,-0.21796 0.09279,-1.10297 0,-0.88472 -0.01276,-1.03645 -0.09273,-1.10296 -0.06656,-0.0554 -0.320683,-0.0823 -0.900488,-0.0953 l -0.807758,-0.0182 0.01542,-0.90899 0.01542,-0.909 0.831067,-0.0281 c 0.655513,-0.0222 0.842292,-0.0459 0.884206,-0.11239 0.08327,-0.13208 0.06964,-2.03792 -0.01538,-2.15181 -0.05906,-0.0791 -0.199975,-0.0965 -0.885066,-0.10908 l -0.814823,-0.015 -0.0281,-0.81482 c -0.01545,-0.44816 -0.04856,-0.84644 -0.07356,-0.88507 -0.03381,-0.0522 -0.325947,-0.0702 -1.139334,-0.0702 h -1.09387 l -0.0548,0.14414 c -0.07744,0.20368 -0.07346,6.54191 0.0042,6.7501 0.07484,0.20053 1.20546,1.35188 1.430121,1.45634 0.237727,0.11053 2.495106,0.0877 2.632653,-0.0266 z m 8.447089,-0.63668 0.74924,-0.7419 v -2.48528 c 0,-2.18442 -0.01069,-2.49597 -0.08831,-2.57359 -0.07382,-0.0738 -0.256355,-0.0883 -1.112655,-0.0883 -0.721789,0 -1.044266,0.0199 -1.091782,0.0674 -0.04985,0.0498 -0.06766,0.58104 -0.06829,2.03706 -4.5e-4,1.08329 -0.02189,2.00277 -0.04758,2.04329 -0.03093,0.0488 -0.139877,0.0678 -0.322259,0.0562 l -0.275537,-0.0175 -0.0281,-2.03916 c -0.02384,-1.73037 -0.04086,-2.04722 -0.11239,-2.09239 -0.129117,-0.0815 -2.097599,-0.0703 -2.180354,0.0125 -0.04985,0.0498 -0.06766,0.58104 -0.06829,2.03706 -4.49e-4,1.08329 -0.02188,2.00277 -0.04758,2.04329 -0.03093,0.0488 -0.139877,0.0678 -0.322259,0.0562 l -0.275537,-0.0175 -0.0281,-2.02301 c -0.01545,-1.11265 -0.04856,-2.05462 -0.07356,-2.09325 -0.06342,-0.098 -2.1214,-0.10059 -2.219184,-0.003 -0.05087,0.0509 -0.06722,0.84132 -0.06657,3.21715 4.5e-4,1.73234 0.01966,3.17926 0.04264,3.21538 0.06725,0.10571 0.273091,0.11257 3.660692,0.12202 l 3.226535,0.009 z m 3.704025,0.60472 c 0.06656,-0.0911 0.07973,-0.62167 0.07973,-3.21313 0,-2.74694 -0.01016,-3.11421 -0.08831,-3.19236 -0.07382,-0.0738 -0.256355,-0.0883 -1.112655,-0.0883 -0.721789,0 -1.044266,0.0199 -1.091782,0.0674 -0.05087,0.0509 -0.06743,0.85206 -0.06743,3.2611 v 3.19367 l 0.126438,0.0536 c 0.06954,0.0295 0.564703,0.0477 1.100361,0.0403 0.890588,-0.0122 0.980744,-0.0226 1.05365,-0.12239 z m 4.857542,0.0248 c 0.06936,-0.10988 0.06939,-2.08166 2.8e-5,-2.19159 -0.04194,-0.0665 -0.228755,-0.0902 -0.884205,-0.11239 l -0.831027,-0.0281 v -0.89911 -0.89912 l 0.811,-0.0156 c 0.480959,-0.009 0.841141,-0.0407 0.885066,-0.0771 0.107045,-0.0888 0.107045,-2.14197 0,-2.23081 -0.04392,-0.0365 -0.404107,-0.0678 -0.885066,-0.0771 l -0.811,-0.0156 -0.0281,-0.82628 c -0.01613,-0.47443 -0.05375,-0.85184 -0.08835,-0.88631 -0.0397,-0.0396 -0.432722,-0.0548 -1.151992,-0.0447 l -1.091738,0.0153 -0.01448,3.45473 -0.01449,3.45472 0.688822,0.69441 c 0.378852,0.38193 0.739397,0.71686 0.801211,0.74428 0.06181,0.0274 0.663352,0.0443 1.33675,0.0374 1.01769,-0.0104 1.233342,-0.0267 1.277569,-0.0968 z m 5.675606,0 c 0.0293,-0.0464 0.05365,-0.54269 0.05413,-1.10297 7.42e-4,-0.87901 -0.01186,-1.02924 -0.09193,-1.09579 -0.06979,-0.058 -0.39361,-0.0841 -1.306526,-0.10522 l -1.213741,-0.0281 -0.01559,-0.83531 c -0.0106,-0.56814 0.0051,-0.86021 0.04903,-0.91316 0.05127,-0.0618 0.306038,-0.0779 1.233808,-0.0779 0.987977,0 1.18288,-0.0137 1.257499,-0.0883 0.131123,-0.13113 0.131123,-2.05245 0,-2.18357 -0.07637,-0.0764 -0.317331,-0.0883 -1.783399,-0.0883 h -1.695095 l -0.717263,0.71567 -0.717264,0.71567 v 1.85605 1.85604 l 0.716482,0.70938 c 0.394066,0.39015 0.754414,0.72415 0.800775,0.74221 0.04636,0.0181 0.824885,0.0272 1.730055,0.0203 1.392368,-0.0106 1.653965,-0.0255 1.699029,-0.0968 z m 3.014624,0.0375 c 0.02573,-0.0257 0.05942,-0.97401 0.07487,-2.1073 l 0.0281,-2.06054 h 0.786725 0.786726 l 0.03529,0.78673 c 0.01941,0.43269 0.03837,1.36264 0.04215,2.06654 l 0.0069,1.27982 0.154535,0.0599 c 0.09589,0.0372 0.513897,0.0521 1.101424,0.0393 0.8542,-0.0187 0.954589,-0.0312 1.025553,-0.12826 0.06458,-0.0883 0.07867,-0.54763 0.07867,-2.56619 v -2.45861 l -0.722091,-0.73267 -0.722091,-0.73267 -1.286869,-0.0151 -1.286869,-0.0151 -0.01565,-0.811 c -0.0093,-0.48096 -0.04067,-0.84114 -0.07712,-0.88507 -0.04698,-0.0566 -0.31679,-0.0741 -1.144374,-0.0741 -0.935627,0 -1.087542,0.0121 -1.117013,0.0889 -0.04915,0.12807 -0.04047,8.13116 0.0089,8.20738 0.02271,0.0351 0.09186,0.0776 0.153675,0.0945 0.176232,0.0483 2.036362,0.0158 2.08862,-0.0364 z m -13.55635,-7.31876 c 0.117244,-0.11724 0.125697,-0.8784 0.01081,-0.97375 -0.05377,-0.0446 -0.410661,-0.0596 -1.16604,-0.049 l -1.088548,0.0153 -0.01641,0.46906 c -0.01041,0.29747 0.0075,0.49789 0.04903,0.54789 0.101895,0.12278 2.087415,0.11428 2.211156,-0.009 z"
         id="path83"
         inkscape:connector-curvature="0" />
      <path
         style="fill:#6d48a3;stroke-width:0.05619469"
         d="m 111.45883,149.91903 c -0.41444,-0.0712 -0.7872,-0.16498 -0.83142,-0.2092 -0.0441,-0.0441 -0.36684,-0.81144 -0.71724,-1.70525 -0.3504,-0.8938 -0.66878,-1.69324 -0.7075,-1.77653 -0.092,-0.19791 -0.22127,-0.2428 -0.33878,-0.11767 -0.0519,0.0553 -0.39499,0.80517 -0.76238,1.6664 -0.36738,0.86124 -0.70407,1.58004 -0.7482,1.59735 -0.0441,0.0173 -0.36839,-1.1e-4 -0.72058,-0.0388 -0.89319,-0.098 -1.03153,-0.12453 -1.06196,-0.20383 -0.0147,-0.0382 0.20005,-0.58457 0.47716,-1.21409 1.70664,-3.87707 1.97566,-4.51193 1.97566,-4.6624 0,-0.0918 -0.28076,-0.89301 -0.62391,-1.7805 -0.34316,-0.8875 -0.83399,-2.15732 -1.09075,-2.82182 -0.25675,-0.6645 -0.47542,-1.25876 -0.48593,-1.32058 -0.0183,-0.10789 0.0158,-0.11294 0.85192,-0.12636 0.47906,-0.008 0.89862,0.005 0.93236,0.0281 0.0337,0.0231 0.33264,0.73055 0.66423,1.57202 0.33159,0.84147 0.6501,1.58746 0.70781,1.65774 0.084,0.10237 0.12473,0.11569 0.20443,0.067 0.0558,-0.0341 0.37476,-0.71795 0.72656,-1.55783 0.34489,-0.82336 0.66895,-1.56093 0.72014,-1.63906 0.0929,-0.14183 0.0944,-0.14205 0.96456,-0.14205 0.67438,0 0.87799,0.0169 0.90024,0.0749 0.0158,0.0412 -0.52995,1.41306 -1.21281,3.04856 -0.69581,1.66653 -1.23134,3.02304 -1.21832,3.08603 0.0128,0.0618 0.55777,1.52419 1.2111,3.24972 0.65331,1.72552 1.20321,3.19853 1.22199,3.27334 0.0304,0.12097 0.0164,0.13534 -0.12649,0.12993 -0.0883,-0.003 -0.49869,-0.0641 -0.91189,-0.13513 z m -8.73961,-0.93113 c -0.36756,-0.0251 -0.70274,-0.0589 -0.74484,-0.0751 -0.064,-0.0246 -0.0742,-0.98201 -0.0622,-5.86123 l 0.0143,-5.83186 0.82743,-0.0156 c 0.82034,-0.0154 0.82769,-0.0144 0.85799,0.11239 0.0168,0.0704 0.0111,2.73222 -0.0126,5.91525 -0.0379,5.08275 -0.0534,5.78819 -0.12745,5.79451 -0.0464,0.004 -0.38503,-0.0133 -0.7526,-0.0385 z m -4.417313,-0.30605 c -0.633595,-0.0385 -1.645099,-0.0866 -2.247787,-0.10676 -0.602688,-0.0202 -1.178103,-0.0494 -1.278699,-0.0651 l -0.182902,-0.0284 0.01432,-5.63092 0.01432,-5.63092 H 95.46408 96.307 l 0.04367,4.74716 c 0.02402,2.61094 0.06416,4.76766 0.0892,4.7927 0.02504,0.025 0.675512,0.0817 1.445488,0.12594 1.787907,0.1027 1.881788,0.11258 1.939896,0.20429 0.02661,0.042 0.04877,0.40637 0.04924,0.80971 9.28e-4,0.78821 -0.02677,0.87412 -0.277303,0.86029 -0.07881,-0.004 -0.661692,-0.0394 -1.295288,-0.078 z m -41.66836,-0.36008 c -0.123628,-0.0585 -0.768462,-0.43461 -1.432965,-0.83568 -1.17888,-0.71153 -1.23088,-0.75083 -2.143831,-1.62034 l -0.935646,-0.89113 -0.0056,-4.03197 -0.0056,-4.03197 h 1.869112 1.869112 l 0.926573,0.92813 0.926574,0.92812 4.146421,-0.015 c 3.612735,-0.013 4.153476,-0.0258 4.20124,-0.0993 0.03115,-0.0479 0.04846,-0.44214 0.04008,-0.91325 l -0.01474,-0.82895 3.371682,1.5e-4 3.371681,1.5e-4 0.01967,0.8569 c 0.01081,0.4713 0.04497,0.88785 0.0759,0.92568 0.03856,0.0472 0.315037,0.0737 0.879451,0.0843 l 0.823211,0.0155 0.01651,0.37447 c 0.02586,0.58657 0.08909,0.59166 0.65207,0.0525 l 0.475182,-0.45507 h 1.002211 1.002211 l 0.925935,-0.92721 0.925935,-0.92722 h 1.863826 1.863827 l 0.0077,0.8541 c 0.0047,0.51743 0.0316,0.88292 0.06836,0.92721 0.04583,0.0552 0.316891,0.0732 1.107452,0.0734 l 1.04677,2.4e-4 0.859204,0.85673 c 0.472562,0.47119 0.882402,0.89439 0.910754,0.94043 0.05049,0.082 0.07146,5.72404 0.02196,5.90738 -0.01346,0.0499 -0.647219,0.50503 -1.408351,1.0115 l -1.383874,0.92086 -1.017103,-0.0196 c -0.559407,-0.0108 -1.036069,-0.0312 -1.059249,-0.0455 -0.02318,-0.0142 -0.04215,-0.15839 -0.04215,-0.32037 0,-0.52433 -0.05848,-0.5214 -0.842783,0.0423 l -0.477517,0.34318 -0.753932,0.0186 c -0.414662,0.0102 -0.838292,0.003 -0.941398,-0.0166 -0.182034,-0.0342 -0.187467,-0.0431 -0.187467,-0.309 0,-0.57114 -0.09999,-0.58264 -0.628608,-0.0723 L 78.2304,148.4025 h -1.707417 -1.707417 l -0.387775,-0.3848 c -0.483081,-0.47938 -0.568026,-0.47974 -0.676892,-0.003 l -0.07822,0.34264 -1.410937,0.034 c -1.600847,0.0386 -1.414049,0.0821 -2.067171,-0.48189 -0.419476,-0.36225 -0.507917,-0.34478 -0.575864,0.11379 l -0.05201,0.351 h -1.52911 -1.52911 l -0.03768,-0.26692 c -0.05399,-0.38247 -0.08471,-0.46361 -0.175551,-0.46361 -0.08525,0 -0.123427,0.0349 -0.541686,0.49548 l -0.264499,0.29125 H 62.93038 c -2.422436,0 -2.574422,-0.006 -2.854305,-0.11237 -0.345324,-0.13125 -0.525183,-0.1424 -0.587855,-0.0364 -0.03468,0.0586 -0.340138,0.084 -1.337416,0.11121 -1.194754,0.0326 -1.309474,0.0272 -1.517257,-0.0712 z m 0.272476,-2.35657 c 0.08005,-0.0665 0.09279,-0.21796 0.09279,-1.10297 0,-0.88472 -0.01276,-1.03645 -0.09273,-1.10296 -0.06656,-0.0554 -0.320683,-0.0823 -0.900488,-0.0953 l -0.807758,-0.0182 0.01542,-0.90899 0.01542,-0.909 0.831067,-0.0281 c 0.655513,-0.0222 0.842292,-0.0459 0.884206,-0.11239 0.08327,-0.13208 0.06964,-2.03792 -0.01538,-2.15181 -0.05906,-0.0791 -0.199975,-0.0965 -0.885066,-0.10908 l -0.814823,-0.015 -0.0281,-0.81482 c -0.01545,-0.44816 -0.04856,-0.84644 -0.07356,-0.88507 -0.03381,-0.0522 -0.325947,-0.0702 -1.139334,-0.0702 h -1.09387 l -0.0548,0.14414 c -0.07744,0.20368 -0.07346,6.54191 0.0042,6.7501 0.07484,0.20053 1.20546,1.35188 1.430121,1.45634 0.237727,0.11053 2.495106,0.0877 2.632653,-0.0266 z m 8.447089,-0.63668 0.74924,-0.7419 v -2.48528 c 0,-2.18442 -0.01069,-2.49597 -0.08831,-2.57359 -0.07382,-0.0738 -0.256355,-0.0883 -1.112655,-0.0883 -0.721789,0 -1.044266,0.0199 -1.091782,0.0674 -0.04985,0.0498 -0.06766,0.58104 -0.06829,2.03706 -4.5e-4,1.08329 -0.02189,2.00277 -0.04758,2.04329 -0.03093,0.0488 -0.139877,0.0678 -0.322259,0.0562 l -0.275537,-0.0175 -0.0281,-2.03916 c -0.02384,-1.73037 -0.04086,-2.04722 -0.11239,-2.09239 -0.129117,-0.0815 -2.097599,-0.0703 -2.180354,0.0125 -0.04985,0.0498 -0.06766,0.58104 -0.06829,2.03706 -4.49e-4,1.08329 -0.02188,2.00277 -0.04758,2.04329 -0.03093,0.0488 -0.139877,0.0678 -0.322259,0.0562 l -0.275537,-0.0175 -0.0281,-2.02301 c -0.01545,-1.11265 -0.04856,-2.05462 -0.07356,-2.09325 -0.06342,-0.098 -2.1214,-0.10059 -2.219184,-0.003 -0.05087,0.0509 -0.06722,0.84132 -0.06657,3.21715 4.5e-4,1.73234 0.01966,3.17926 0.04264,3.21538 0.06725,0.10571 0.273091,0.11257 3.660692,0.12202 l 3.226535,0.009 z m 3.704025,0.60472 c 0.06656,-0.0911 0.07973,-0.62167 0.07973,-3.21313 0,-2.74694 -0.01016,-3.11421 -0.08831,-3.19236 -0.07382,-0.0738 -0.256355,-0.0883 -1.112655,-0.0883 -0.721789,0 -1.044266,0.0199 -1.091782,0.0674 -0.05087,0.0509 -0.06743,0.85206 -0.06743,3.2611 v 3.19367 l 0.126438,0.0536 c 0.06954,0.0295 0.564703,0.0477 1.100361,0.0403 0.890588,-0.0122 0.980744,-0.0226 1.05365,-0.12239 z m 4.857542,0.0248 c 0.06936,-0.10988 0.06939,-2.08166 2.8e-5,-2.19159 -0.04194,-0.0665 -0.228755,-0.0902 -0.884205,-0.11239 l -0.831027,-0.0281 v -0.89911 -0.89912 l 0.811,-0.0156 c 0.480959,-0.009 0.841141,-0.0407 0.885066,-0.0771 0.107045,-0.0888 0.107045,-2.14197 0,-2.23081 -0.04392,-0.0365 -0.404107,-0.0678 -0.885066,-0.0771 l -0.811,-0.0156 -0.0281,-0.82628 c -0.01613,-0.47443 -0.05375,-0.85184 -0.08835,-0.88631 -0.0397,-0.0396 -0.432722,-0.0548 -1.151992,-0.0447 l -1.091738,0.0153 -0.01448,3.45473 -0.01449,3.45472 0.688822,0.69441 c 0.378852,0.38193 0.739397,0.71686 0.801211,0.74428 0.06181,0.0274 0.663352,0.0443 1.33675,0.0374 1.01769,-0.0104 1.233342,-0.0267 1.277569,-0.0968 z m 5.675606,0 c 0.0293,-0.0464 0.05365,-0.54269 0.05413,-1.10297 7.42e-4,-0.87901 -0.01186,-1.02924 -0.09193,-1.09579 -0.06979,-0.058 -0.39361,-0.0841 -1.306526,-0.10522 l -1.213741,-0.0281 -0.01559,-0.83531 c -0.0106,-0.56814 0.0051,-0.86021 0.04903,-0.91316 0.05127,-0.0618 0.306038,-0.0779 1.233808,-0.0779 0.987977,0 1.18288,-0.0137 1.257499,-0.0883 0.131123,-0.13113 0.131123,-2.05245 0,-2.18357 -0.07637,-0.0764 -0.317331,-0.0883 -1.783399,-0.0883 h -1.695095 l -0.717263,0.71567 -0.717264,0.71567 v 1.85605 1.85604 l 0.716482,0.70938 c 0.394066,0.39015 0.754414,0.72415 0.800775,0.74221 0.04636,0.0181 0.824885,0.0272 1.730055,0.0203 1.392368,-0.0106 1.653965,-0.0255 1.699029,-0.0968 z m 3.014624,0.0375 c 0.02573,-0.0257 0.05942,-0.97401 0.07487,-2.1073 l 0.0281,-2.06054 h 0.786725 0.786726 l 0.03529,0.78673 c 0.01941,0.43269 0.03837,1.36264 0.04215,2.06654 l 0.0069,1.27982 0.154535,0.0599 c 0.09589,0.0372 0.513897,0.0521 1.101424,0.0393 0.8542,-0.0187 0.954589,-0.0312 1.025553,-0.12826 0.06458,-0.0883 0.07867,-0.54763 0.07867,-2.56619 v -2.45861 l -0.722091,-0.73267 -0.722091,-0.73267 -1.286869,-0.0151 -1.286869,-0.0151 -0.01565,-0.811 c -0.0093,-0.48096 -0.04067,-0.84114 -0.07712,-0.88507 -0.04698,-0.0566 -0.31679,-0.0741 -1.144374,-0.0741 -0.935627,0 -1.087542,0.0121 -1.117013,0.0889 -0.04915,0.12807 -0.04047,8.13116 0.0089,8.20738 0.02271,0.0351 0.09186,0.0776 0.153675,0.0945 0.176232,0.0483 2.036362,0.0158 2.08862,-0.0364 z m -13.55635,-7.31876 c 0.117244,-0.11724 0.125697,-0.8784 0.01081,-0.97375 -0.05377,-0.0446 -0.410661,-0.0596 -1.16604,-0.049 l -1.088548,0.0153 -0.01641,0.46906 c -0.01041,0.29747 0.0075,0.49789 0.04903,0.54789 0.101895,0.12278 2.087415,0.11428 2.211156,-0.009 z m 18.482247,9.62884 c -0.0613,-0.0948 -0.08957,-8.39348 -0.03374,-9.9058 l 0.04356,-1.18008 h 2.697345 2.697345 v 0.87101 0.87102 l -1.786293,0.0281 c -1.505508,0.0237 -1.794659,0.0413 -1.839515,0.11239 -0.06966,0.11033 -0.07098,2.50619 -0.0014,2.63611 0.04793,0.0896 0.189296,0.1041 1.358771,0.13972 0.7179,0.0219 1.326015,0.0526 1.351368,0.0682 0.07517,0.0465 0.057,1.63813 -0.01924,1.68525 -0.03593,0.0222 -0.636515,0.0518 -1.334624,0.0658 -0.698107,0.014 -1.294575,0.0491 -1.325482,0.0781 -0.03472,0.0325 -0.06693,0.91585 -0.08429,2.31175 l -0.0281,2.25908 -0.824642,0.0155 c -0.621025,0.0117 -0.836092,-0.002 -0.871017,-0.0562 z"
         id="path81"
         inkscape:connector-curvature="0" />
      <path
         style="fill:#613da1;stroke-width:0.05619469"
         d="m 111.45883,149.91903 c -0.41444,-0.0712 -0.7872,-0.16498 -0.83142,-0.2092 -0.0441,-0.0441 -0.36684,-0.81144 -0.71724,-1.70525 -0.3504,-0.8938 -0.66878,-1.69324 -0.7075,-1.77653 -0.092,-0.19791 -0.22127,-0.2428 -0.33878,-0.11767 -0.0519,0.0553 -0.39499,0.80517 -0.76238,1.6664 -0.36738,0.86124 -0.70407,1.58004 -0.7482,1.59735 -0.0441,0.0173 -0.36839,-1.1e-4 -0.72058,-0.0388 -0.89319,-0.098 -1.03153,-0.12453 -1.06196,-0.20383 -0.0147,-0.0382 0.20005,-0.58457 0.47716,-1.21409 1.70664,-3.87707 1.97566,-4.51193 1.97566,-4.6624 0,-0.0918 -0.28076,-0.89301 -0.62391,-1.7805 -0.34316,-0.8875 -0.83399,-2.15732 -1.09075,-2.82182 -0.25675,-0.6645 -0.47542,-1.25876 -0.48593,-1.32058 -0.0183,-0.10789 0.0158,-0.11294 0.85192,-0.12636 0.47906,-0.008 0.89862,0.005 0.93236,0.0281 0.0337,0.0231 0.33264,0.73055 0.66423,1.57202 0.33159,0.84147 0.6501,1.58746 0.70781,1.65774 0.084,0.10237 0.12473,0.11569 0.20443,0.067 0.0558,-0.0341 0.37476,-0.71795 0.72656,-1.55783 0.34489,-0.82336 0.66895,-1.56093 0.72014,-1.63906 0.0929,-0.14183 0.0944,-0.14205 0.96456,-0.14205 0.67438,0 0.87799,0.0169 0.90024,0.0749 0.0158,0.0412 -0.52995,1.41306 -1.21281,3.04856 -0.69581,1.66653 -1.23134,3.02304 -1.21832,3.08603 0.0128,0.0618 0.55777,1.52419 1.2111,3.24972 0.65331,1.72552 1.20321,3.19853 1.22199,3.27334 0.0304,0.12097 0.0164,0.13534 -0.12649,0.12993 -0.0883,-0.003 -0.49869,-0.0641 -0.91189,-0.13513 z m -8.73961,-0.93113 c -0.36756,-0.0251 -0.70274,-0.0589 -0.74484,-0.0751 -0.064,-0.0246 -0.0742,-0.98201 -0.0622,-5.86123 l 0.0143,-5.83186 0.82743,-0.0156 c 0.82034,-0.0154 0.82769,-0.0144 0.85799,0.11239 0.0168,0.0704 0.0111,2.73222 -0.0126,5.91525 -0.0379,5.08275 -0.0534,5.78819 -0.12745,5.79451 -0.0464,0.004 -0.38503,-0.0133 -0.7526,-0.0385 z m -4.417313,-0.30605 c -0.633595,-0.0385 -1.645099,-0.0866 -2.247787,-0.10676 -0.602688,-0.0202 -1.178103,-0.0494 -1.278699,-0.0651 l -0.182902,-0.0284 0.01432,-5.63092 0.01432,-5.63092 H 95.46408 96.307 l 0.04367,4.74716 c 0.02402,2.61094 0.06416,4.76766 0.0892,4.7927 0.02504,0.025 0.675512,0.0817 1.445488,0.12594 1.787907,0.1027 1.881788,0.11258 1.939896,0.20429 0.02661,0.042 0.04877,0.40637 0.04924,0.80971 9.28e-4,0.78821 -0.02677,0.87412 -0.277303,0.86029 -0.07881,-0.004 -0.661692,-0.0394 -1.295288,-0.078 z m -10.771101,-0.37621 c -0.0613,-0.0948 -0.08957,-8.39348 -0.03374,-9.9058 l 0.04356,-1.18008 h 2.697345 2.697345 v 0.87101 0.87102 l -1.786293,0.0281 c -1.505508,0.0237 -1.794659,0.0413 -1.839515,0.11239 -0.06966,0.11033 -0.07098,2.50619 -0.0014,2.63611 0.04793,0.0896 0.189296,0.1041 1.358771,0.13972 0.7179,0.0219 1.326015,0.0526 1.351368,0.0682 0.07517,0.0465 0.057,1.63813 -0.01924,1.68525 -0.03593,0.0222 -0.636515,0.0518 -1.334624,0.0658 -0.698107,0.014 -1.294575,0.0491 -1.325482,0.0781 -0.03472,0.0325 -0.06693,0.91585 -0.08429,2.31175 l -0.0281,2.25908 -0.824642,0.0155 c -0.621025,0.0117 -0.836092,-0.002 -0.871017,-0.0562 z m -32.190757,-0.83165 -1.403847,-0.84423 -0.856969,-0.85498 -0.856969,-0.85499 -0.01301,-3.68143 c -0.01154,-3.26596 -0.01641,-3.44678 -0.04319,-1.60223 l -0.03018,2.0792 -0.01301,-2.40232 -0.01301,-2.40233 1.194137,0.0128 1.194137,0.0128 -1.16604,0.0164 c -1.063547,0.015 -1.16565,0.0249 -1.161603,0.11359 0.0027,0.0587 0.01567,0.0693 0.03278,0.027 0.02185,-0.0541 0.442575,-0.0703 1.836598,-0.0703 h 1.808255 l 0.897797,0.89912 0.897798,0.89911 h 4.148711 c 2.752348,0 4.185296,-0.0196 4.257406,-0.0582 0.10003,-0.0535 0.108695,-0.12521 0.108695,-0.89911 v -0.84095 h 3.28739 3.287389 l 0.0056,0.74458 c 0.0084,1.11791 -0.07982,1.02027 0.952137,1.05365 l 0.868588,0.0281 0.0281,0.42146 c 0.03995,0.59928 0.132368,0.59976 0.754542,0.004 L 75.8158,138.8213 h 1.002231 1.00223 l 0.897798,-0.89911 0.897798,-0.89912 h 1.805084 1.805086 l 0.04075,0.85605 c 0.02241,0.47083 0.05055,0.87191 0.06253,0.89129 0.01198,0.0194 0.517872,0.0477 1.124208,0.0629 l 1.102428,0.0277 0.838289,0.8369 0.83829,0.83689 -0.01453,3.00664 -0.01453,3.00663 -1.319363,0.88507 -1.319364,0.88507 h -0.992113 c -1.123499,0 -1.05898,0.03 -1.06065,-0.49347 -0.0013,-0.42134 -0.144283,-0.39747 -0.919632,0.15357 l -0.482299,0.34277 -0.886918,-0.0155 -0.886917,-0.0155 -0.01482,-0.25288 c -0.03769,-0.64313 -0.146785,-0.66035 -0.711906,-0.11239 l -0.405677,0.39337 H 76.526471 74.84914 l -0.405677,-0.39337 c -0.553154,-0.53636 -0.635128,-0.52746 -0.776679,0.0843 l -0.06501,0.28097 -1.40358,0.0133 -1.403579,0.0133 -0.466017,-0.39262 c -0.460755,-0.3882 -0.658799,-0.47264 -0.722031,-0.30786 -0.01789,0.0466 -0.04871,0.21732 -0.06848,0.37932 l -0.03595,0.29454 -1.465122,0.015 -1.465123,0.015 -0.05213,-0.34688 c -0.08237,-0.54809 -0.172529,-0.55679 -0.64604,-0.0624 l -0.390173,0.40741 h -2.588137 c -2.531292,0 -2.596012,-0.003 -2.946728,-0.12515 l -0.358593,-0.12515 -0.133216,0.12515 c -0.129756,0.1219 -0.166717,0.12515 -1.423092,0.12515 h -1.289877 z m 1.626652,-1.43568 c 0.0742,-0.0742 0.08817,-0.26042 0.08745,-1.16604 -4.74e-4,-0.59276 -0.02477,-1.11567 -0.054,-1.16203 -0.04191,-0.0665 -0.228694,-0.0902 -0.884206,-0.11239 l -0.831067,-0.0281 v -0.84292 -0.84293 l 0.810999,-0.0156 c 0.48096,-0.009 0.841141,-0.0407 0.885066,-0.0771 0.101475,-0.0842 0.107583,-2.23951 0.0066,-2.34046 -0.04423,-0.0442 -0.281112,-0.0676 -0.688385,-0.068 -0.341524,-3.4e-4 -0.71578,-0.0163 -0.831682,-0.0354 l -0.21073,-0.0348 v -0.80059 c 0,-0.67586 -0.01447,-0.8126 -0.09285,-0.87771 -0.142418,-0.1183 -2.305503,-0.11178 -2.380817,0.007 -0.03216,0.0508 -0.05371,1.43627 -0.05423,3.48561 -7.75e-4,3.06109 0.0084,3.41522 0.09141,3.54027 0.136529,0.20559 0.906642,0.98925 1.219306,1.24075 l 0.271971,0.21876 h 1.283418 c 1.091817,0 1.2966,-0.0132 1.371723,-0.0883 z m 8.446512,-0.6555 0.745333,-0.74379 v -2.53285 c 0,-1.94007 -0.01647,-2.55538 -0.07037,-2.62909 -0.06313,-0.0864 -0.188852,-0.0947 -1.222235,-0.081 l -1.151861,0.0153 -0.03411,1.93872 c -0.01876,1.06629 -0.03773,2.00971 -0.04215,2.09648 -0.0076,0.14982 -0.02006,0.15689 -0.246859,0.14049 l -0.238827,-0.0173 -0.0281,-2.03432 c -0.01844,-1.33506 -0.04879,-2.05498 -0.0883,-2.09444 -0.03987,-0.0398 -0.447942,-0.055 -1.208185,-0.0449 l -1.147987,0.0153 -0.03411,1.93872 c -0.01876,1.06629 -0.03773,2.00971 -0.04215,2.09648 -0.0076,0.14982 -0.02006,0.15689 -0.246859,0.14049 l -0.238827,-0.0173 -0.01477,-2.01812 c -0.0102,-1.39331 -0.03436,-2.04173 -0.07805,-2.09437 -0.05032,-0.0606 -0.300595,-0.0731 -1.221515,-0.0611 l -1.158233,0.0152 -0.0145,3.26887 c -0.01294,2.91635 -0.0049,3.27845 0.07426,3.35764 0.07894,0.0789 0.468744,0.0888 3.525914,0.0888 h 3.437158 z m 3.72493,0.63141 c 0.08651,-0.13707 0.07166,-6.41801 -0.01546,-6.53714 -0.06313,-0.0864 -0.188852,-0.0947 -1.222235,-0.081 l -1.151861,0.0153 -0.0145,3.28108 c -0.01085,2.45318 0.0022,3.3012 0.05167,3.36082 0.09947,0.11985 2.274897,0.0838 2.352385,-0.039 z m 4.799354,0.0241 c 0.07435,-0.0744 0.08831,-0.26474 0.08831,-1.20487 0,-0.83154 -0.01793,-1.12817 -0.07024,-1.16203 -0.03863,-0.025 -0.436913,-0.0581 -0.885066,-0.0736 l -0.814823,-0.0281 v -0.84292 -0.84293 l 0.871018,-0.0281 0.871017,-0.0281 v -1.20819 -1.20818 l -0.871017,-0.0333 c -0.47906,-0.0183 -0.87734,-0.0373 -0.885067,-0.0421 -0.0077,-0.005 -0.01405,-0.37242 -0.01405,-0.81679 0,-0.68348 -0.01434,-0.81982 -0.09306,-0.88506 -0.130957,-0.10854 -2.226393,-0.11223 -2.334558,-0.004 -0.05793,0.0579 -0.07683,0.78339 -0.09133,3.50572 l -0.01828,3.4327 0.779125,0.77913 0.779126,0.77912 h 1.300295 c 1.107159,0 1.31341,-0.0131 1.3886,-0.0883 z m 5.619824,0.0335 0.144145,-0.0548 v -1.12127 c 0,-0.94442 -0.01393,-1.1352 -0.08831,-1.20958 -0.07478,-0.0748 -0.272702,-0.0883 -1.292478,-0.0883 H 77.11651 v -0.83467 -0.83468 l 0.429939,-0.0363 c 0.236466,-0.02 0.791904,-0.0363 1.234306,-0.0363 0.737742,0 0.809186,-0.009 0.862539,-0.1087 0.08567,-0.16007 0.0774,-2.20977 -0.0093,-2.29644 -0.0496,-0.0496 -0.536173,-0.0674 -1.839594,-0.0674 h -1.772161 l -0.717264,0.71567 -0.717263,0.71567 v 1.91412 1.91411 l 0.749239,0.74189 0.74924,0.7419 h 1.663473 c 0.94484,0 1.725746,-0.0237 1.807619,-0.0548 z m 3.083361,-0.0154 c 0.08541,-0.0633 0.09618,-0.27285 0.109081,-2.12135 l 0.01431,-2.05111 0.393363,-0.003 c 0.21635,-10e-4 0.550247,0.008 0.741994,0.0219 l 0.348632,0.0246 0.01663,2.04532 c 0.01419,1.74449 0.02903,2.05315 0.100926,2.09855 0.04636,0.0293 0.552808,0.0536 1.125439,0.0541 0.85237,7.1e-4 1.063791,-0.015 1.166039,-0.0866 l 0.124894,-0.0875 v -2.54647 -2.54646 l -0.724954,-0.72871 -0.724954,-0.72871 -0.890643,-0.0369 c -0.489854,-0.0203 -1.07332,-0.037 -1.296592,-0.0371 l -0.405948,-1.8e-4 -0.01551,-0.85697 -0.01551,-0.85697 H 81.499696 80.29151 l -0.01441,4.16808 c -0.01291,3.73379 -0.0052,4.17732 0.07426,4.25675 0.07445,0.0745 0.257505,0.0887 1.14161,0.0887 0.754349,0 1.079819,-0.0199 1.147712,-0.0702 z M 69.10031,138.75015 c 0.08265,-0.0604 0.09485,-0.15147 0.08098,-0.6041 l -0.01633,-0.53293 h -1.208186 -1.208185 l -0.0162,0.5573 c -0.01186,0.40799 0.0032,0.56961 0.05619,0.60323 0.12474,0.0791 2.200203,0.058 2.311722,-0.0235 z m -16.981562,3.33045 c 0,-0.0773 0.01275,-0.10888 0.02834,-0.0703 0.01559,0.0386 0.01559,0.10186 0,0.14049 -0.01559,0.0386 -0.02834,0.007 -0.02834,-0.0702 z m -0.0044,-0.25756 c 0.0027,-0.0655 0.01601,-0.0788 0.03395,-0.034 0.01623,0.0406 0.01424,0.089 -0.0044,0.1077 -0.01867,0.0187 -0.03195,-0.0145 -0.02951,-0.0738 z"
         id="path79"
         inkscape:connector-curvature="0" />
      <path
         style="fill:#d71b1c;stroke-width:0.05619469"
         d="m 111.45883,149.91903 c -0.41444,-0.0712 -0.7872,-0.16498 -0.83142,-0.2092 -0.0441,-0.0441 -0.36684,-0.81144 -0.71724,-1.70525 -0.3504,-0.8938 -0.66878,-1.69324 -0.7075,-1.77653 -0.092,-0.19791 -0.22127,-0.2428 -0.33878,-0.11767 -0.0519,0.0553 -0.39499,0.80517 -0.76238,1.6664 -0.36738,0.86124 -0.70407,1.58004 -0.7482,1.59735 -0.0441,0.0173 -0.36839,-1.1e-4 -0.72058,-0.0388 -0.89319,-0.098 -1.03153,-0.12453 -1.06196,-0.20383 -0.0147,-0.0382 0.20005,-0.58457 0.47716,-1.21409 1.70664,-3.87707 1.97566,-4.51193 1.97566,-4.6624 0,-0.0918 -0.28076,-0.89301 -0.62391,-1.7805 -0.34316,-0.8875 -0.83399,-2.15732 -1.09075,-2.82182 -0.25675,-0.6645 -0.47542,-1.25876 -0.48593,-1.32058 -0.0183,-0.10789 0.0158,-0.11294 0.85192,-0.12636 0.47906,-0.008 0.89862,0.005 0.93236,0.0281 0.0337,0.0231 0.33264,0.73055 0.66423,1.57202 0.33159,0.84147 0.6501,1.58746 0.70781,1.65774 0.084,0.10237 0.12473,0.11569 0.20443,0.067 0.0558,-0.0341 0.37476,-0.71795 0.72656,-1.55783 0.34489,-0.82336 0.66895,-1.56093 0.72014,-1.63906 0.0929,-0.14183 0.0944,-0.14205 0.96456,-0.14205 0.67438,0 0.87799,0.0169 0.90024,0.0749 0.0158,0.0412 -0.52995,1.41306 -1.21281,3.04856 -0.69581,1.66653 -1.23134,3.02304 -1.21832,3.08603 0.0128,0.0618 0.55777,1.52419 1.2111,3.24972 0.65331,1.72552 1.20321,3.19853 1.22199,3.27334 0.0304,0.12097 0.0164,0.13534 -0.12649,0.12993 -0.0883,-0.003 -0.49869,-0.0641 -0.91189,-0.13513 z m -8.73961,-0.93113 c -0.36756,-0.0251 -0.70274,-0.0589 -0.74484,-0.0751 -0.064,-0.0246 -0.0742,-0.98201 -0.0622,-5.86123 l 0.0143,-5.83186 0.82743,-0.0156 c 0.82034,-0.0154 0.82769,-0.0144 0.85799,0.11239 0.0168,0.0704 0.0111,2.73222 -0.0126,5.91525 -0.0379,5.08275 -0.0534,5.78819 -0.12745,5.79451 -0.0464,0.004 -0.38503,-0.0133 -0.7526,-0.0385 z m -4.417313,-0.30605 c -0.633595,-0.0385 -1.645099,-0.0866 -2.247787,-0.10676 -0.602688,-0.0202 -1.178103,-0.0494 -1.278699,-0.0651 l -0.182902,-0.0284 0.01432,-5.63092 0.01432,-5.63092 H 95.46408 96.307 l 0.04367,4.74716 c 0.02402,2.61094 0.06416,4.76766 0.0892,4.7927 0.02504,0.025 0.675512,0.0817 1.445488,0.12594 1.787907,0.1027 1.881788,0.11258 1.939896,0.20429 0.02661,0.042 0.04877,0.40637 0.04924,0.80971 9.28e-4,0.78821 -0.02677,0.87412 -0.277303,0.86029 -0.07881,-0.004 -0.661692,-0.0394 -1.295288,-0.078 z m -10.771101,-0.37621 c -0.0613,-0.0948 -0.08957,-8.39348 -0.03374,-9.9058 l 0.04356,-1.18008 h 2.697345 2.697345 v 0.87101 0.87102 l -1.786293,0.0281 c -1.505508,0.0237 -1.794659,0.0413 -1.839515,0.11239 -0.06966,0.11033 -0.07098,2.50619 -0.0014,2.63611 0.04793,0.0896 0.189296,0.1041 1.358771,0.13972 0.7179,0.0219 1.326015,0.0526 1.351368,0.0682 0.07517,0.0465 0.057,1.63813 -0.01924,1.68525 -0.03593,0.0222 -0.636515,0.0518 -1.334624,0.0658 -0.698107,0.014 -1.294575,0.0491 -1.325482,0.0781 -0.03472,0.0325 -0.06693,0.91585 -0.08429,2.31175 l -0.0281,2.25908 -0.824642,0.0155 c -0.621025,0.0117 -0.836092,-0.002 -0.871017,-0.0562 z"
         id="path77"
         inkscape:connector-curvature="0" />
    </g>
  </g>
</svg>
