<?xml version="1.0" encoding="UTF-8" standalone="no"?>
<!-- Created with Inkscape (http://www.inkscape.org/) -->

<svg
   xmlns:dc="http://purl.org/dc/elements/1.1/"
   xmlns:cc="http://creativecommons.org/ns#"
   xmlns:rdf="http://www.w3.org/1999/02/22-rdf-syntax-ns#"
   xmlns:svg="http://www.w3.org/2000/svg"
   xmlns="http://www.w3.org/2000/svg"
   xmlns:sodipodi="http://sodipodi.sourceforge.net/DTD/sodipodi-0.dtd"
   xmlns:inkscape="http://www.inkscape.org/namespaces/inkscape"
   width="21.166668mm"
   height="21.345339mm"
   viewBox="0 0 21.166668 21.345339"
   version="1.1"
   id="svg167"
   inkscape:version="0.92.5 (2060ec1f9f, 2020-04-08)"
   sodipodi:docname="iconSmall.svg">
  <defs
     id="defs161" />
  <sodipodi:namedview
     id="base"
     pagecolor="#ffffff"
     bordercolor="#666666"
     borderopacity="1.0"
     inkscape:pageopacity="0.0"
     inkscape:pageshadow="2"
     inkscape:zoom="5.6"
     inkscape:cx="9.2154569"
     inkscape:cy="10.276753"
     inkscape:document-units="mm"
     inkscape:current-layer="layer1"
     showgrid="false"
     inkscape:window-width="1920"
     inkscape:window-height="1009"
     inkscape:window-x="0"
     inkscape:window-y="0"
     inkscape:window-maximized="1" />
  <metadata
     id="metadata164">
    <rdf:RDF>
      <cc:Work
         rdf:about="">
        <dc:format>image/svg+xml</dc:format>
        <dc:type
           rdf:resource="http://purl.org/dc/dcmitype/StillImage" />
        <dc:title></dc:title>
      </cc:Work>
    </rdf:RDF>
  </metadata>
  <g
     inkscape:label="Layer 1"
     inkscape:groupmode="layer"
     id="layer1"
     transform="translate(-7e-6,-0.01503)">
    <g
       id="g299"
       transform="translate(-42.333333,-53.483631)">
      <path
         style="fill:#efa6a6;stroke-width:0.08466666"
         d="m 50.456211,74.677108 c -0.165804,-0.08294 -1.335475,-0.772765 -2.599268,-1.532939 L 45.559138,71.762034 43.946239,70.135569 42.33334,68.509103 v -7.505221 -7.505221 h 3.568221 3.568221 l 1.636133,1.622486 c 1.082933,1.0739 1.651101,1.58203 1.680404,1.502833 0.02435,-0.06581 0.05411,-0.767352 0.06614,-1.558986 l 0.02188,-1.439333 5.312833,-0.0218 5.312833,-0.0218 v 1.863303 c 0,1.024817 -0.0095,1.871732 -0.02117,1.882034 -0.01164,0.0103 -1.545166,0.03888 -3.407833,0.0635 l -3.386666,0.04477 -0.02248,2.391833 -0.02249,2.391834 h 2.408807 c 1.360211,0 2.503348,0.03594 2.625985,0.08257 l 0.217178,0.08257 v 1.805495 c 0,1.291386 -0.02893,1.834427 -0.1016,1.907096 -0.07448,0.07448 -0.77517,0.1016 -2.624666,0.1016 h -2.523067 v 4.318 4.318 l -2.942166,-0.0034 c -2.648212,-0.003 -2.972286,-0.01844 -3.243629,-0.154179 z m 0.724795,-6.446447 v -1.905 l -1.566333,-0.04233 C 48.75319,66.260051 48.000715,66.210171 47.942506,66.1725 47.863386,66.12129 47.837,65.661843 47.83797,64.352167 c 7.11e-4,-0.96351 0.031,-1.798592 0.0673,-1.855738 0.04747,-0.07472 0.516759,-0.110389 1.67087,-0.127 l 1.604864,-0.0231 v -1.947334 -1.947333 l -1.651,-0.04233 -1.651,-0.04233 -0.023,-1.631389 -0.023,-1.631389 -1.966666,0.02272 -1.966667,0.02272 -0.02172,6.216284 -0.02172,6.216284 1.289448,1.29917 1.289447,1.299168 2.372939,-0.02245 2.372939,-0.02245 z"
         id="path313"
         inkscape:connector-curvature="0" />
      <path
         style="fill:#a695c6;stroke-width:0.08466666"
         d="m 50.456211,74.677108 c -0.165804,-0.08294 -1.335475,-0.772765 -2.599268,-1.532939 L 45.559138,71.762034 43.946239,70.135569 42.33334,68.509103 v -7.505221 -7.505221 h 3.568432 3.568433 l 1.664218,1.651 c 0.91532,0.90805 1.690775,1.651 1.723234,1.651 0.03246,0 0.05902,-0.663634 0.05902,-1.474742 0,-0.811108 0.02313,-1.535008 0.05139,-1.608667 0.0461,-0.120125 0.591325,-0.133924 5.291666,-0.133924 h 5.240275 v 1.862666 1.862667 h -3.462275 c -3.079038,0 -3.467963,0.01482 -3.513666,0.133925 -0.02827,0.07366 -0.05139,1.152226 -0.05139,2.396817 0,1.677804 0.02736,2.29977 0.105833,2.405519 0.09448,0.127319 0.37841,0.144956 2.645833,0.164349 l 2.54,0.02172 v 1.778 1.778 l -2.564344,0.04233 c -2.15482,0.03557 -2.577286,0.06261 -2.645387,0.169333 -0.04893,0.07668 -0.07998,1.80428 -0.07837,4.360333 l 0.0027,4.233334 -1.753867,0.02293 c -1.346419,0.0176 -1.769733,-0.0021 -1.822159,-0.08467 -0.05372,-0.08464 -0.06857,-0.08502 -0.06959,-0.0018 -0.0022,0.180936 -1.99885,0.137495 -2.377091,-0.05172 z m 0.724795,-6.446447 v -1.905 l -1.566333,-0.04233 C 48.75319,66.260051 48.000715,66.210171 47.942506,66.1725 47.863386,66.12129 47.837,65.661843 47.83797,64.352167 c 7.11e-4,-0.96351 0.031,-1.798592 0.0673,-1.855738 0.04747,-0.07472 0.516759,-0.110389 1.67087,-0.127 l 1.604864,-0.0231 v -1.947334 -1.947333 l -1.651,-0.04233 -1.651,-0.04233 -0.023,-1.631389 -0.023,-1.631389 -1.966666,0.02272 -1.966667,0.02272 -0.02172,6.216284 -0.02172,6.216284 1.289448,1.29917 1.289447,1.299168 2.372939,-0.02245 2.372939,-0.02245 z"
         id="path311"
         inkscape:connector-curvature="0" />
      <path
         style="fill:#a771a0;stroke-width:0.08466666"
         d="M 50.633005,74.691298 C 50.520432,74.612449 49.359429,73.90577 48.053,73.120901 l -2.375327,-1.427034 -1.672166,-1.667309 -1.672167,-1.66731 v -7.430293 -7.430294 h 3.500712 3.500712 l 1.694153,1.70583 c 1.025543,1.032612 1.732356,1.682219 1.790954,1.646003 0.06661,-0.04117 0.0968,-0.518238 0.0968,-1.529572 0,-0.80836 0.02313,-1.530011 0.05139,-1.60367 0.0461,-0.120125 0.591325,-0.133924 5.291666,-0.133924 h 5.240275 v 1.862666 1.862667 h -3.462275 c -3.079038,0 -3.467963,0.01482 -3.513666,0.133925 -0.02827,0.07366 -0.05139,1.152226 -0.05139,2.396817 0,1.677804 0.02736,2.29977 0.105833,2.405519 0.09448,0.127319 0.37841,0.144956 2.645833,0.164349 l 2.54,0.02172 v 1.778 1.778 l -2.564344,0.04233 c -2.15482,0.03557 -2.577286,0.06261 -2.645387,0.169333 -0.04893,0.07668 -0.07998,1.80428 -0.07837,4.360333 l 0.0027,4.233334 -1.753867,0.02293 c -1.346419,0.0176 -1.769733,-0.0021 -1.822159,-0.08467 -0.05372,-0.08464 -0.06857,-0.08502 -0.06959,-0.0018 -9.65e-4,0.0786 -0.257864,0.105834 -0.998457,0.105834 -0.799918,0 -1.037647,-0.02836 -1.20184,-0.143363 z m 0.570736,-4.414733 c 0.08293,-0.05264 0.102222,-0.529823 0.08467,-2.094203 l -0.02273,-2.026034 -1.631512,-0.023 -1.631511,-0.023 0.02284,-1.797333 0.02285,-1.797333 1.608666,-0.04233 1.608667,-0.04233 v -2.032 -2.032 l -1.608667,-0.04233 -1.608666,-0.04233 -0.02313,-1.560029 c -0.01447,-0.975665 -0.058,-1.602034 -0.116201,-1.672167 -0.127785,-0.153972 -3.881493,-0.163776 -4.034732,-0.01054 -0.07719,0.07719 -0.1016,1.608492 -0.1016,6.374612 v 6.273011 l 1.339475,1.330056 1.339474,1.330055 2.322359,-0.0013 c 1.277297,-6.77e-4 2.37069,-0.03197 2.42976,-0.06947 z"
         id="path309"
         inkscape:connector-curvature="0" />
      <path
         style="fill:#df5153;stroke-width:0.08466666"
         d="m 50.682605,74.705164 c -0.07122,-0.07122 -1.196363,-0.76706 -2.500311,-1.546303 L 45.811481,71.742055 44.07241,70.016153 42.33334,68.290251 v -7.395795 -7.395795 h 3.497241 3.497242 l 1.668412,1.675706 1.668412,1.675707 0.03097,8.844127 c 0.01703,4.864269 0.05877,8.910802 0.09274,8.992293 0.05683,0.136326 -0.01967,0.148167 -0.957245,0.148167 -0.801632,0 -1.046636,-0.02763 -1.148507,-0.129497 z m 0.622423,-4.521604 c 0.132796,-0.248132 0.116597,-3.744327 -0.01819,-3.925307 -0.0913,-0.122587 -0.32098,-0.145162 -1.672167,-0.164349 l -1.566333,-0.02224 -0.02289,-1.756833 -0.02288,-1.756834 h 1.562003 c 1.307115,0 1.583715,-0.02171 1.695051,-0.133047 0.198927,-0.198927 0.198927,-3.852978 0,-4.051905 -0.111314,-0.111315 -0.387614,-0.133048 -1.691505,-0.133048 H 48.00966 l -0.023,-1.629833 -0.023,-1.629833 h -2.07432 -2.074333 l -0.02171,6.388769 -0.02171,6.388769 1.294731,1.294731 1.29473,1.294731 h 2.428164 c 2.314002,0 2.432284,-0.0077 2.51581,-0.163768 z m 1.611645,-5.838957 c 0,-5.771384 0.02313,-10.553692 0.05139,-10.627351 0.0461,-0.120125 0.591325,-0.133924 5.291666,-0.133924 h 5.240275 v 1.862666 1.862667 h -3.462275 c -3.079038,0 -3.467963,0.01482 -3.513666,0.133925 -0.02827,0.07366 -0.05139,1.152226 -0.05139,2.396817 0,1.677804 0.02736,2.29977 0.105833,2.405519 0.09448,0.127319 0.37841,0.144956 2.645833,0.164349 l 2.54,0.02172 v 1.778 1.778 l -2.564344,0.04233 c -2.15482,0.03557 -2.577286,0.06261 -2.645387,0.169333 -0.04893,0.07668 -0.07998,1.804284 -0.07837,4.360333 l 0.0027,4.233334 -1.781119,0.02285 -1.781119,0.02285 V 64.344603 Z"
         id="path307"
         inkscape:connector-curvature="0" />
      <path
         style="fill:#6a49a6;stroke-width:0.08466666"
         d="m 50.682605,74.705164 c -0.07122,-0.07122 -1.196363,-0.76706 -2.500311,-1.546303 L 45.811481,71.742055 44.07241,70.016153 42.33334,68.290251 v -7.395795 -7.395795 h 3.497241 3.497242 l 1.668412,1.675706 1.668412,1.675707 0.03097,8.844127 c 0.01703,4.864269 0.05877,8.910802 0.09274,8.992293 0.05683,0.136326 -0.01967,0.148167 -0.957245,0.148167 -0.801632,0 -1.046636,-0.02763 -1.148507,-0.129497 z m 0.622423,-4.521604 c 0.132796,-0.248132 0.116597,-3.744327 -0.01819,-3.925307 -0.0913,-0.122587 -0.32098,-0.145162 -1.672167,-0.164349 l -1.566333,-0.02224 -0.02289,-1.756833 -0.02288,-1.756834 h 1.562003 c 1.307115,0 1.583715,-0.02171 1.695051,-0.133047 0.198927,-0.198927 0.198927,-3.852978 0,-4.051905 -0.111314,-0.111315 -0.387614,-0.133048 -1.691505,-0.133048 H 48.00966 l -0.023,-1.629833 -0.023,-1.629833 h -2.07432 -2.074333 l -0.02171,6.388769 -0.02171,6.388769 1.294731,1.294731 1.29473,1.294731 h 2.428164 c 2.314002,0 2.432284,-0.0077 2.51581,-0.163768 z m 1.667921,4.594667 c -0.0077,-0.0078 0.0051,-4.732154 0.02839,-10.498666 l 0.04233,-10.484567 5.185853,-0.04233 5.185853,-0.04233 1e-5,1.735666 10e-6,1.735667 -3.346354,-0.02308 c -2.234113,-0.01541 -3.401974,0.0067 -3.513696,0.06648 -0.160842,0.08608 -0.167343,0.186063 -0.167343,2.57388 0,1.967809 0.02349,2.503812 0.112965,2.578073 0.07565,0.06279 0.949535,0.101166 2.645833,0.116199 l 2.532869,0.02245 v 1.693333 1.693334 l -2.532869,0.02245 c -1.716738,0.01522 -2.569752,0.05306 -2.647337,0.117449 -0.09399,0.078 -0.110413,0.864972 -0.0918,4.398198 l 0.02267,4.303197 -1.721724,0.02435 c -0.946949,0.01339 -1.727999,0.01801 -1.735667,0.01025 z"
         id="path305"
         inkscape:connector-curvature="0" />
      <path
         style="fill:#623fa3;stroke-width:0.08466666"
         d="m 50.800006,74.749994 c -0.110379,-0.07133 -0.110669,-0.08224 -0.0022,-0.08337 0.06863,-6.77e-4 -0.998167,-0.671238 -2.370667,-1.490056 l -2.495454,-1.488761 -1.7145,-1.706632 c -0.942975,-0.938647 -1.7145,-1.657106 -1.7145,-1.596576 0,0.06053 -0.0381,0.08651 -0.08467,0.05773 -0.0554,-0.03424 -0.08467,-2.611435 -0.08467,-7.455664 v -7.403336 l 3.577167,0.0067 c 1.967441,0.0037 3.537594,0.02322 3.489229,0.04342 -0.04836,0.02021 0.647168,0.769674 1.54563,1.665483 l 1.633566,1.628743 0.02699,8.842708 c 0.02039,6.680345 0.05134,8.850822 0.126537,8.875889 0.05475,0.01825 0.09954,0.06811 0.09954,0.110792 0,0.103886 -1.870378,0.09739 -2.032,-0.0071 z m 0.625942,-4.451925 c 0.07588,-0.197738 0.05999,-4.039456 -0.01721,-4.160976 -0.04747,-0.07472 -0.516758,-0.110389 -1.67087,-0.127 l -1.604864,-0.0231 -0.02296,-1.672166 -0.02296,-1.672167 h 1.593524 c 1.126517,0 1.623298,-0.02978 1.695123,-0.1016 0.144391,-0.144391 0.144391,-4.139742 0,-4.284133 -0.07181,-0.07181 -0.567801,-0.1016 -1.691505,-0.1016 H 48.09433 l -0.023,-1.629834 -0.02299,-1.629833 -2.176064,-0.02259 -2.176063,-0.02259 -0.04995,0.276588 c -0.02747,0.152124 -0.03884,3.068397 -0.02527,6.480607 l 0.02468,6.20402 1.317751,1.310147 1.317751,1.310147 h 2.546691 c 2.244144,0 2.552795,-0.01591 2.598082,-0.133925 z m 1.547001,4.480158 c -0.0077,-0.0078 0.0051,-4.732154 0.02839,-10.498666 l 0.04233,-10.484567 5.185853,-0.04233 5.185853,-0.04233 1e-5,1.735666 10e-6,1.735667 -3.346354,-0.02308 c -2.234113,-0.01541 -3.401974,0.0067 -3.513696,0.06648 -0.160842,0.08608 -0.167343,0.186063 -0.167343,2.57388 0,1.967809 0.02349,2.503812 0.112965,2.578073 0.07565,0.06279 0.949535,0.101166 2.645833,0.116199 l 2.532869,0.02245 v 1.693333 1.693334 l -2.532869,0.02245 c -1.716738,0.01522 -2.569752,0.05306 -2.647337,0.117449 -0.09399,0.078 -0.110413,0.864972 -0.0918,4.398198 l 0.02267,4.303197 -1.721724,0.02435 c -0.946949,0.01339 -1.727999,0.01801 -1.735667,0.01025 z"
         id="path303"
         inkscape:connector-curvature="0" />
      <path
         style="fill:#d91b1c;stroke-width:0.08466666"
         d="m 52.972949,74.778227 c -0.0077,-0.0078 0.0051,-4.732154 0.02839,-10.498666 l 0.04233,-10.484567 5.185853,-0.04233 5.185853,-0.04233 1e-5,1.735666 10e-6,1.735667 -3.346354,-0.02308 c -2.234113,-0.01541 -3.401974,0.0067 -3.513696,0.06648 -0.160842,0.08608 -0.167343,0.186063 -0.167343,2.57388 0,1.967809 0.02349,2.503812 0.112965,2.578073 0.07565,0.06279 0.949535,0.101166 2.645833,0.116199 l 2.532869,0.02245 v 1.693333 1.693334 l -2.532869,0.02245 c -1.716738,0.01522 -2.569752,0.05306 -2.647337,0.117449 -0.09399,0.078 -0.110413,0.864972 -0.0918,4.398198 l 0.02267,4.303197 -1.721724,0.02435 c -0.946949,0.01339 -1.727999,0.01801 -1.735667,0.01025 z"
         id="path301"
         inkscape:connector-curvature="0" />
    </g>
  </g>
</svg>
